<svg width="180" height="100" viewBox="0 0 180 100" fill="none" xmlns="http://www.w3.org/2000/svg">
<mask id="mask0_1666_122991" style="mask-type:alpha" maskUnits="userSpaceOnUse" x="0" y="0" width="180" height="100">
<path d="M180 0H0V100H180V0Z" fill="white"/>
</mask>
<g mask="url(#mask0_1666_122991)">
<path d="M59.7743 80.4686L57.5996 27.3899H77.4468C78.3863 25.4025 79.7896 23.6698 81.5385 22.3379C83.9203 20.5254 86.8309 19.5439 89.8239 19.5439C92.817 19.5439 95.7275 20.5254 98.1094 22.3379C99.8574 23.6694 101.26 25.4014 102.199 27.388H122.056L119.883 80.4667L59.7743 80.4686Z" fill="#FFDD36"/>
<path d="M89.8253 21.076C92.4837 21.0679 95.07 21.9407 97.1799 23.5581C98.9885 24.9404 100.377 26.7987 101.189 28.9251H120.454L118.404 78.9337H61.2487L59.2 28.9213H78.4649C79.2775 26.7949 80.6658 24.9366 82.4744 23.5542C84.5843 21.9369 87.1706 21.064 89.8291 21.0721L89.8253 21.076ZM89.8291 18.0001C86.4981 17.9901 83.2574 19.0831 80.6129 21.1084C78.9341 22.387 77.5389 24 76.5155 25.8454H56L56.1317 29.0435L58.1804 79.0539L58.3007 82H121.361L121.482 79.0539L123.528 29.0435L123.652 25.8492H103.139C102.115 24.0038 100.72 22.3908 99.0415 21.1122C96.3969 19.0869 93.1563 17.9939 89.8253 18.0039L89.8291 18.0001Z" fill="white"/>
<path d="M89.8251 21.0761C92.4836 21.0679 95.0699 21.9408 97.1798 23.5581C98.9884 24.9405 100.377 26.7988 101.189 28.9252H120.454L118.404 78.9337H61.2486L59.1999 28.9214H78.4648C79.2774 26.795 80.6657 24.9367 82.4743 23.5543C84.5842 21.937 87.1705 21.0641 89.829 21.0722L89.8251 21.0761ZM89.829 19.7071C86.8716 19.6992 83.9948 20.6707 81.6476 22.4698C79.8919 23.8056 78.4887 25.5496 77.5597 27.5505H57.7812L57.8404 28.971L59.8815 78.9891L59.9349 80.2989H119.713L119.767 78.9891L121.814 28.9787L121.871 27.5581H102.092C101.165 25.5553 99.7622 23.8093 98.0065 22.4718C95.6588 20.674 92.7821 19.7039 89.8251 19.7128L89.829 19.7071Z" fill="black"/>
<path d="M118.404 78.9338L120.451 28.9233H101.188C100.375 26.797 98.9868 24.9386 97.1782 23.5563C95.0645 21.9495 92.4825 21.0796 89.8274 21.0796C87.1723 21.0796 84.5903 21.9495 82.4765 23.5563C80.6679 24.9386 79.2797 26.797 78.467 28.9233H59.2002L61.2489 78.9338H118.404Z" stroke="#83764F" stroke-width="1.75" stroke-miterlimit="10"/>
<path d="M113.342 71.4491C112.886 71.457 112.441 71.5998 112.066 71.8594C111.69 72.1191 111.399 72.4841 111.231 72.9084C111.062 73.3328 111.022 73.7977 111.117 74.2445C111.211 74.6913 111.436 75.1002 111.762 75.4197C112.089 75.7392 112.502 75.9551 112.951 76.0402C113.4 76.1253 113.864 76.0758 114.284 75.8979C114.705 75.72 115.064 75.4217 115.315 75.0405C115.567 74.6593 115.7 74.2123 115.698 73.7555C115.691 73.1374 115.439 72.5473 114.997 72.1149C114.556 71.6824 113.96 71.443 113.342 71.4491V71.4491ZM113.342 75.5866C112.983 75.5798 112.634 75.4671 112.338 75.2625C112.042 75.058 111.814 74.7707 111.681 74.4367C111.548 74.1028 111.516 73.737 111.591 73.3853C111.665 73.0335 111.841 72.7115 112.097 72.4596C112.354 72.2077 112.679 72.0371 113.032 71.9691C113.385 71.9012 113.75 71.9391 114.082 72.0779C114.413 72.2167 114.696 72.4503 114.896 72.7494C115.095 73.0486 115.202 73.3999 115.202 73.7593C115.2 74.0015 115.15 74.2408 115.056 74.4637C114.961 74.6866 114.824 74.8887 114.651 75.0584C114.478 75.2281 114.274 75.3621 114.049 75.4527C113.825 75.5433 113.584 75.5888 113.342 75.5866V75.5866Z" fill="#FF1926"/>
<path d="M113.753 73.8664C113.932 73.85 114.098 73.7683 114.22 73.6369C114.343 73.5055 114.412 73.3336 114.416 73.1542C114.416 72.8182 114.144 72.4592 113.543 72.4592H112.397V74.9986H112.911V73.9676H113.092C113.356 73.9676 113.457 74.0287 113.778 74.59L113.997 74.9719L114.53 75.0005H114.633L114.28 74.4392C114.158 74.2053 113.976 74.0078 113.753 73.8664V73.8664ZM112.907 72.9117H113.493C113.726 72.9117 113.875 73.032 113.875 73.2172C113.875 73.4864 113.593 73.5265 113.421 73.5265H112.907C112.907 73.4272 112.909 72.9919 112.907 72.9022V72.9117Z" fill="#FF1926"/>
<path d="M86.5181 38.3627V34.1355C86.5181 33.9656 86.4417 33.8606 86.1801 33.8606H73.5654C73.3744 33.8606 73.3076 33.9522 73.3076 34.0993C73.3076 34.0993 73.3076 38.1623 73.3076 38.2997C73.3076 38.4372 73.3592 38.525 73.4985 38.525H76.5534C76.5669 38.5244 76.5803 38.5267 76.5928 38.5317C76.6053 38.5368 76.6165 38.5445 76.6258 38.5542C76.635 38.564 76.642 38.5757 76.6463 38.5885C76.6507 38.6012 76.6522 38.6147 76.6508 38.6281C76.6508 38.6778 76.6794 68.545 76.6794 68.9441C76.6794 69.8796 75.8203 71.3842 74.1744 71.3842C71.9405 71.3842 71.3601 69.8567 71.5148 69.0014C71.7396 69.0305 71.9659 69.0477 72.1926 69.0529C73.9472 69.0529 75.2379 67.3861 75.2379 65.3737C75.2379 63.1684 73.5921 61.4787 71.0852 61.4787C68.6871 61.4787 66.2012 63.4682 66.2012 67.2295C66.2012 71.3785 69.8174 74.7675 74.3673 74.7675C78.5066 74.7675 82.9248 71.9035 82.9248 66.4715C82.9248 64.1918 82.9534 41.5341 82.9534 38.6472C82.9534 38.5632 82.9821 38.5346 83.0718 38.5346H86.331C86.4494 38.5288 86.5181 38.4735 86.5181 38.3627Z" fill="#83764F"/>
<path d="M93.3699 58.8994C93.3699 57.1161 92.1881 56.2645 91.2009 56.2645C90.7102 56.2739 90.2422 56.4734 89.8956 56.821C89.5491 57.1686 89.351 57.6372 89.3432 58.128C89.3432 58.8765 89.9981 59.4512 90.6797 59.5161C90.7332 59.5161 90.7561 59.5695 90.737 59.6306C90.682 59.9038 90.5293 60.1475 90.3075 60.3162C90.0858 60.4849 89.8101 60.567 89.5322 60.5471C88.3866 60.5471 87.768 58.8287 87.768 57.6106C87.768 54.9376 88.7227 54.2311 89.9542 54.2311C90.1765 54.2216 90.3987 54.254 90.6091 54.3266C90.6625 54.3476 90.8 54.3801 90.8 54.2407C90.8 54.1318 90.8 52.5395 90.8 52.4192C90.8 52.2989 90.7026 52.2913 90.6282 52.3142C90.3393 52.3723 90.0462 52.4074 89.7518 52.4192C88.7742 52.4192 87.8673 51.4435 87.8673 49.8626C87.8673 47.6497 88.5451 46.4813 89.5532 46.4813C89.743 46.478 89.929 46.5345 90.0849 46.6428C90.2408 46.7511 90.3587 46.9056 90.4219 47.0846C90.4334 47.1648 90.4334 47.2106 90.3513 47.2202C90.0515 47.2564 89.3375 47.7414 89.3375 48.7648C89.3375 49.9256 90.4029 50.5462 91.1857 50.5462C91.9685 50.5462 92.9862 49.8454 92.9862 48.3295C92.9862 46.1185 90.7179 45.1218 89.1924 45.1218C86.9012 45.1218 84.5833 46.6206 84.5833 49.6011C84.5833 51.6135 85.9446 53.0798 86.4143 53.454C86.462 53.4922 86.464 53.5304 86.4143 53.5571C85.6181 53.9543 84.085 55.5218 84.085 57.8225C84.085 60.171 86.0859 62.4946 89.2172 62.4946C92.0468 62.4908 93.3699 60.1385 93.3699 58.8994Z" fill="#83764F"/>
<path d="M106.645 51.7833C109.2 51.0673 112.579 48.0964 112.579 43.369C112.579 37.1847 107.415 33.9255 103.281 33.9255C100.608 33.9255 91.264 33.9561 91.264 33.9561C91.1093 33.9561 91.0291 34.0458 91.0291 34.147C91.0291 34.2482 91.0291 38.2902 91.0291 38.3647C91.0291 38.4888 91.0712 38.5556 91.2506 38.5556H94.6626C94.7408 38.5556 94.7657 38.6224 94.7657 38.6969V69.6544C94.7657 69.7976 94.7046 69.8701 94.5747 69.8701H91.0425C90.9394 69.8701 90.884 69.9618 90.884 70.0611C90.884 70.1603 90.884 74.4124 90.884 74.4964C90.8813 74.5158 90.8831 74.5356 90.8892 74.5543C90.8952 74.5729 90.9054 74.59 90.919 74.6041C90.9326 74.6183 90.9493 74.6292 90.9677 74.636C90.9861 74.6428 91.0058 74.6453 91.0253 74.6434L102.344 74.6606C110.22 74.6606 114.533 68.2682 114.533 62.9546C114.542 55.4587 108.952 52.3102 106.645 51.7833ZM100.961 38.5365C101.235 38.4837 101.514 38.4625 101.792 38.4735C104.537 38.3971 106.374 39.5103 106.374 43.4816C106.374 47.453 104.61 50.0114 101.674 49.9274C101.341 49.9274 100.887 49.9274 100.887 49.79C100.887 49.6525 100.961 38.5365 100.961 38.5365V38.5365ZM100.795 69.7995L100.881 53.7613C105.313 53.6334 107.564 56.652 107.564 62.2692C107.554 68.7417 104.213 70.063 100.795 69.7995V69.7995Z" fill="#83764F"/>
<path d="M85.8209 37.8378V33.6125C85.8209 33.4426 85.7445 33.3357 85.4811 33.3357H72.8663C72.6753 33.3357 72.6085 33.4273 72.6085 33.5744C72.6085 33.5744 72.6085 37.6354 72.6085 37.7653C72.6085 37.8951 72.6601 37.9906 72.7995 37.9906H75.8543C75.8678 37.99 75.8812 37.9922 75.8937 37.9973C75.9062 38.0023 75.9174 38.01 75.9267 38.0198C75.9359 38.0296 75.9429 38.0413 75.9473 38.054C75.9516 38.0668 75.9531 38.0803 75.9517 38.0937C75.9517 38.1433 75.9804 68.0106 75.9804 68.4096C75.9804 69.3452 75.1212 70.8497 73.4753 70.8497C71.2415 70.8497 70.661 69.3223 70.8157 68.4669C71.0399 68.4969 71.2655 68.5147 71.4916 68.5204C73.2462 68.5204 74.5465 66.8536 74.5465 64.8392C74.5465 62.634 72.9006 60.9443 70.3937 60.9443C67.9937 60.9443 65.5078 62.9357 65.5078 66.6951C65.5078 70.844 69.124 74.233 73.6758 74.233C77.8133 74.233 82.2333 71.3691 82.2333 65.9352C82.2333 63.6574 82.262 40.9977 82.262 38.1109C82.262 38.0269 82.2906 37.9982 82.3803 37.9982H85.6414C85.7522 38.0039 85.8209 37.9486 85.8209 37.8378Z" fill="#FF1926"/>
<path d="M92.6727 58.3762C92.6727 56.591 91.4889 55.7413 90.5037 55.7413C90.0129 55.7507 89.5449 55.9502 89.1984 56.2978C88.8518 56.6454 88.6538 57.114 88.6459 57.6048C88.6459 58.3552 89.3008 58.928 89.9824 58.9929C90.0378 58.9929 90.0588 59.0483 90.0397 59.1074C89.9847 59.3802 89.8323 59.6237 89.611 59.7924C89.3896 59.961 89.1145 60.0433 88.8369 60.0239C87.6913 60.0239 87.0746 58.3055 87.0746 57.0855C87.0746 54.4125 88.0292 53.7079 89.2588 53.7079C89.4818 53.6985 89.7046 53.7308 89.9156 53.8034C89.9691 53.8263 90.1065 53.8569 90.1065 53.7194C90.1065 53.5819 90.1065 52.0182 90.1065 51.8979C90.1065 51.7776 90.0092 51.77 89.9347 51.7929C89.6458 51.851 89.3528 51.8862 89.0583 51.8979C88.0808 51.8979 87.1719 50.9223 87.1719 49.3394C87.1719 47.1266 87.8517 45.96 88.8579 45.96C89.0474 45.9566 89.2332 46.0128 89.3891 46.1207C89.545 46.2287 89.663 46.3828 89.7266 46.5614C89.74 46.6416 89.74 46.6874 89.6559 46.6989C89.3562 46.7351 88.6402 47.2182 88.6402 48.2435C88.6402 49.4044 89.7056 50.0249 90.4884 50.0249C91.2712 50.0249 92.2889 49.3223 92.2889 47.8063C92.2889 45.5953 90.0187 44.5986 88.4951 44.5986C86.2039 44.5986 83.886 46.0974 83.886 49.0779C83.886 51.0903 85.2474 52.5566 85.7171 52.9308C85.7648 52.969 85.7667 53.0072 85.7171 53.0339C84.919 53.4311 83.3877 54.9967 83.3877 57.2974C83.3877 59.6459 85.3886 61.9695 88.5199 61.9695C91.3495 61.9714 92.6746 59.6134 92.6727 58.3762Z" fill="#FF1926"/>
<path d="M105.962 51.2581C108.517 50.5421 111.892 47.5732 111.892 42.8438C111.892 36.6615 106.728 33.4004 102.594 33.4004C99.9209 33.4004 90.5768 33.4309 90.5768 33.4309C90.4221 33.4309 90.3438 33.5226 90.3438 33.6219C90.3438 33.7212 90.3343 37.7651 90.3343 37.8395C90.3343 37.9636 90.3763 38.0305 90.5558 38.0305H93.9677C94.046 38.0305 94.0708 38.0973 94.0708 38.1717V69.1311C94.0708 69.2743 94.0097 69.3469 93.8799 69.3469H90.3667C90.2636 69.3469 90.2083 69.4385 90.2083 69.5378C90.2083 69.6371 90.2083 73.8891 90.2083 73.9731C90.2056 73.9926 90.2073 74.0124 90.2134 74.031C90.2194 74.0497 90.2297 74.0668 90.2433 74.0809C90.2569 74.0951 90.2735 74.1059 90.2919 74.1127C90.3103 74.1195 90.33 74.1221 90.3495 74.1202L101.668 74.1373C109.546 74.1373 113.859 67.745 113.859 62.4314C113.859 54.9335 108.259 51.7851 105.962 51.2581ZM100.28 38.0114C100.554 37.9598 100.832 37.9393 101.11 37.9503C103.856 37.8739 105.693 38.987 105.693 42.9603C105.693 46.9336 103.929 49.4901 100.992 49.4061C100.662 49.4061 100.205 49.4061 100.205 49.2686C100.205 49.1312 100.278 38.0114 100.278 38.0114H100.28ZM100.112 69.2743L100.198 53.2362C104.627 53.1102 106.88 56.1269 106.88 61.7459C106.871 68.2185 103.529 69.5378 100.112 69.2743V69.2743Z" fill="#FF1926"/>
</g>
</svg>
