<svg width="180" height="100" viewBox="0 0 180 100" fill="none" xmlns="http://www.w3.org/2000/svg">
<mask id="mask0_1653_120798" style="mask-type:alpha" maskUnits="userSpaceOnUse" x="0" y="0" width="180" height="100">
<path d="M180 0H0V100H180V0Z" fill="white"/>
</mask>
<g mask="url(#mask0_1653_120798)">
</g>
<path d="M74.9417 49.8043C75.0649 50.09 75.3067 50.8591 74.7746 51.2458L74.7966 51.237C74.6779 51.3117 73.5698 52.1292 72.554 52.8719C70.3861 54.4541 70.7511 54.1904 70.6807 54.2299C70.4169 54.3926 70.153 54.4321 69.8672 54.3486C69.9288 54.3135 70.4081 53.9619 72.3253 52.5643C73.5742 51.6545 74.436 51.0173 74.5592 50.9294C74.7527 50.7756 74.7483 50.3361 74.5987 49.9845C74.5328 49.8263 74.867 49.6549 74.9417 49.8087V49.8043Z" fill="#C8CECF" stroke="#C8CECF" stroke-width="0.21"/>
<path d="M71.4899 49.9538C70.9183 49.9494 70.3774 49.6989 69.9113 49.2682C69.5727 48.8507 69.2824 48.3497 69.067 47.7651L68.9658 47.4927L69.1989 47.3213C70.1091 46.6444 72.6024 44.7854 73.1741 44.2712C73.9216 43.6076 74.3306 42.7286 74.3306 41.7925C74.3306 41.208 74.1635 40.6147 73.8469 40.0873C73.372 39.2918 71.635 36.2593 71.5515 36.1099C71.4635 35.9341 71.7801 35.7451 71.8769 35.9033C71.8945 35.9341 73.6886 39.0808 74.1767 39.8895C74.5417 40.496 74.722 41.1464 74.722 41.7925C74.722 42.8077 74.2778 43.8053 73.4379 44.5569C72.8223 45.1062 70.1795 47.0751 69.4363 47.6289C69.8805 48.8331 70.628 49.6681 71.4943 49.9494L71.4899 49.9538Z" fill="#C8CECF" stroke="#C8CECF" stroke-width="0.21"/>
<path d="M68.5433 44.7679C68.4773 44.4075 68.4246 43.9724 68.4246 43.4582C68.4246 43.3571 68.4246 43.2517 68.429 43.1418C68.4553 42.5221 68.5301 41.9068 68.64 41.3399C68.5433 41.1553 68.451 40.9751 68.3674 40.8037C68.1915 41.5333 68.0772 42.3243 68.042 43.133L68.0332 43.4626C68.0332 43.9944 68.0904 44.513 68.2003 45.0096C68.3102 44.9349 68.4246 44.8514 68.5433 44.7723V44.7679Z" fill="#C8CECF" stroke="#C8CECF" stroke-width="0.21"/>
<path d="M92.8425 51.2458L92.8601 51.237C92.7414 51.3118 91.6376 52.1292 90.6131 52.8719C88.4496 54.4541 88.8101 54.1904 88.7442 54.23C88.4803 54.3926 88.2121 54.4321 87.9307 54.3486C87.9922 54.3135 88.4715 53.9619 90.3844 52.5643C91.6332 51.6546 92.4951 51.0173 92.6183 50.9294C92.8073 50.7756 93.0096 51.114 92.8381 51.2502L92.8425 51.2458Z" fill="#C8CECF" stroke="#C8CECF" stroke-width="0.21"/>
<path d="M89.549 49.9538C88.9773 49.9494 88.4365 49.6989 87.9703 49.2682C87.6317 48.8507 87.3415 48.3497 87.1304 47.7651L87.0293 47.4927L87.2624 47.3213C88.1726 46.6444 90.6615 44.7854 91.2332 44.2712C91.9807 43.6076 92.3897 42.7286 92.3897 41.7925C92.3897 41.208 92.2226 40.6147 91.9016 40.0873C91.4267 39.2918 89.6941 36.2593 89.6062 36.1099C89.5138 35.9341 89.8348 35.7451 89.9316 35.9033C89.9491 35.9341 91.7433 39.0808 92.2314 39.8895C92.592 40.496 92.7723 41.1464 92.7723 41.7925C92.7723 42.8077 92.3325 43.8053 91.4882 44.5569C90.8726 45.1062 88.2298 47.0751 87.4866 47.6289C87.9308 48.8331 88.6783 49.6681 89.5446 49.9494L89.549 49.9538Z" fill="#C8CECF" stroke="#C8CECF" stroke-width="0.21"/>
<path d="M86.6075 44.7679C86.5371 44.4075 86.4844 43.9724 86.4844 43.4582C86.4844 43.3571 86.4844 43.2517 86.4888 43.1418C86.5108 42.5221 86.5899 41.9068 86.6998 41.3399C86.6075 41.1553 86.5108 40.9751 86.4228 40.8037C86.2469 41.5333 86.137 42.3243 86.1018 43.133V43.4626C86.0974 43.9944 86.1546 44.513 86.2645 45.0096C86.3744 44.9349 86.4888 44.8514 86.6075 44.7723V44.7679Z" fill="#C8CECF" stroke="#C8CECF" stroke-width="0.21"/>
<path d="M141.746 49.699C141.87 49.9847 142.111 50.7582 141.579 51.1494L141.601 51.1318C141.487 51.2153 140.374 52.0239 139.359 52.7667C137.195 54.3488 137.556 54.0851 137.49 54.1247C137.222 54.2785 136.958 54.3269 136.672 54.239C136.733 54.2038 137.217 53.8566 139.13 52.4546C140.379 51.5449 141.236 50.9032 141.364 50.8241C141.557 50.6703 141.553 50.222 141.403 49.8792C141.337 49.721 141.672 49.5496 141.746 49.699V49.699Z" fill="#C8CECF" stroke="#C8CECF" stroke-width="0.21"/>
<path d="M138.29 49.8529C137.719 49.8441 137.178 49.598 136.712 49.1673C136.373 48.7585 136.087 48.2487 135.867 47.6642L135.771 47.3917L136.004 47.2203C136.918 46.5479 139.407 44.6845 139.974 44.1747C140.722 43.511 141.131 42.6321 141.131 41.7003C141.131 41.1114 140.959 40.5225 140.643 39.9907C140.163 39.1953 138.435 36.1628 138.343 36.009C138.251 35.8376 138.572 35.6486 138.668 35.8024C138.686 35.8376 140.484 38.9799 140.968 39.7886C141.333 40.3951 141.513 41.0499 141.513 41.6959C141.513 42.7112 141.074 43.7088 140.229 44.4647C139.614 45.0097 136.971 46.983 136.228 47.5324C136.668 48.7366 137.42 49.5716 138.286 49.8529H138.29Z" fill="#C8CECF" stroke="#C8CECF" stroke-width="0.21"/>
<path d="M135.348 44.6624C135.278 44.3021 135.225 43.867 135.225 43.3572C135.225 43.2561 135.225 43.1462 135.229 43.0407C135.256 42.421 135.335 41.8058 135.445 41.2344C135.348 41.0498 135.256 40.8696 135.172 40.7026C134.996 41.4322 134.882 42.2233 134.847 43.0275L134.838 43.3572C134.838 43.8889 134.895 44.4075 135.005 44.9085C135.115 44.8294 135.229 44.7459 135.348 44.6624V44.6624Z" fill="#C8CECF" stroke="#C8CECF" stroke-width="0.21"/>
<path d="M79.4798 53.8433C80.025 53.2456 82.3337 50.7317 82.5051 50.5603C82.6195 50.4285 82.2765 50.2307 82.1666 50.3406C81.9995 50.512 79.8887 52.8061 79.2863 53.4829C79.0972 53.6939 79.2511 54.0938 79.4754 53.8477L79.4798 53.8433Z" fill="#C8CECF" stroke="#C8CECF" stroke-width="0.21"/>
<path d="M81.2082 49.4923C81.0763 49.3957 80.962 49.3034 80.8652 49.2023C80.6981 49.0353 80.4739 48.7188 80.4739 47.9234C80.4739 47.9234 80.4739 40.6235 80.4739 40.1005C81.327 40.1093 81.56 40.1005 81.67 40.0785C81.9338 40.0345 82.2548 39.9335 82.4307 39.494C82.4879 39.3489 82.9672 37.5075 83.0024 37.2965C83.0068 37.2745 83.0068 37.2614 83.0112 37.2438C83.0507 37.0065 82.677 36.9801 82.6242 37.2306C82.5846 37.4064 82.1449 39.1775 82.0701 39.3533C81.9778 39.595 81.8283 39.6654 81.604 39.7049C81.5468 39.7137 81.3973 39.7181 81.1203 39.7181C80.9532 39.7181 80.7421 39.7181 80.4739 39.7181H80.0869V39.7357C80.0869 40.1884 80.0869 47.8443 80.0869 47.8443C80.0869 48.3497 80.1749 48.6969 80.2848 48.943C80.5398 49.444 81.0983 49.4967 81.1907 49.5363C81.283 49.5671 81.2918 49.5451 81.2082 49.4879V49.4923Z" fill="#C8CECF" stroke="#C8CECF" stroke-width="0.21"/>
<path d="M80.4866 36.2726C80.3371 36.2726 80.2008 36.2726 80.0996 36.2726L80.0381 32.5941C80.0381 32.3919 80.4251 32.4095 80.4251 32.5941C80.4251 32.9325 80.469 35.2003 80.4866 36.2726V36.2726Z" fill="#C8CECF" stroke="#C8CECF" stroke-width="0.21"/>
<path d="M130.511 50.09C130.41 50.0285 130.348 49.9581 130.3 49.8966C130.049 49.5538 130.001 49.0616 130.001 48.2134L129.979 44.6623L129.948 39.6038C129.948 38.3205 129.297 37.2657 128.756 36.7954C128.027 36.1582 127.468 35.8462 126.98 35.6879C126.795 35.6264 126.483 35.5825 126.312 35.6616C126.795 35.833 127.393 36.1933 128.119 36.7559C128.246 36.857 128.409 37.002 128.554 37.1426C129.029 37.5646 129.561 38.4655 129.561 39.6038L129.592 44.6579L129.614 48.209C129.614 48.6309 129.627 48.9693 129.671 49.2594C129.702 49.4923 129.9 49.9581 130.454 50.1603C130.63 50.2218 130.661 50.1603 130.511 50.0812V50.09Z" fill="#C8CECF" stroke="#C8CECF" stroke-width="0.21"/>
<path d="M131.448 51.448C131.294 51.6018 129.205 53.6806 128.818 54.0805C128.721 54.186 128.396 53.9487 128.51 53.8388C128.84 53.4916 131.012 51.3337 131.18 51.1667C131.298 51.048 131.619 51.281 131.443 51.448H131.448Z" fill="#C8CECF" stroke="#C8CECF" stroke-width="0.21"/>
<path d="M123.88 53.6937V51.6413L123.831 41.221C123.831 40.8563 123.884 40.5574 123.963 40.3816C123.858 40.2454 123.752 40.1619 123.664 40.1223C123.519 40.364 123.444 40.7376 123.444 41.2254L123.484 51.6457L123.493 53.6981C123.493 53.9223 123.88 53.9223 123.88 53.6981V53.6937Z" fill="#C8CECF" stroke="#C8CECF" stroke-width="0.21"/>
<path d="M121.628 35.8417C121.905 35.9911 122.503 36.312 123.009 36.8701C123.154 37.0327 123.273 37.2173 123.37 37.4063C123.268 37.4986 123.172 37.5953 123.079 37.6876C122.978 37.4722 122.859 37.3008 122.723 37.147C122.653 37.0635 122.552 36.958 122.472 36.8833C121.998 36.4702 121.545 36.1845 121.25 36.0175C121.03 35.912 121.373 35.7143 121.633 35.8417H121.628Z" fill="#C8CECF" stroke="#C8CECF" stroke-width="0.21"/>
<path d="M96.8752 53.5708C97.6536 52.8105 99.4389 51.0877 99.5532 50.9778C99.562 50.9734 99.883 50.657 99.8874 50.6526C100.063 50.4988 99.694 50.3142 99.5225 50.4724C99.3114 50.6658 96.7301 53.1577 96.3036 53.606C96.0441 53.8433 96.5323 53.9048 96.8752 53.5752V53.5708Z" fill="#C8CECF" stroke="#C8CECF" stroke-width="0.21"/>
<path d="M98.4192 49.3782C98.3752 49.343 98.3356 49.3034 98.2873 49.2551C98.1202 49.0881 97.8959 48.7717 97.8959 47.9762V32.849C97.8959 32.1458 97.8695 31.4558 97.4957 30.7262C97.3155 30.3747 97.0604 29.9923 96.7042 29.7945C96.1853 29.5089 95.9347 29.566 96.4888 30.0187C96.7174 30.2252 96.9637 30.5329 97.1572 30.902C97.487 31.5569 97.5133 32.1678 97.5133 32.849V47.9762C97.5133 48.6398 97.6584 49.0354 97.8212 49.2815C97.9839 49.5276 98.362 49.5803 98.4764 49.5803C98.5863 49.5803 98.5995 49.51 98.4236 49.3738L98.4192 49.3782Z" fill="#C8CECF" stroke="#C8CECF" stroke-width="0.21"/>
<path d="M107.222 41.8892C107.222 47.0049 107.807 49.5407 108.295 50.7669C108.48 51.2284 108.678 51.5668 108.862 51.8129C108.92 51.8656 108.972 51.9008 109.012 51.9228C109.082 51.892 109.183 51.8305 109.298 51.7338C109.109 51.5228 108.871 51.18 108.651 50.6219C108.176 49.4309 107.605 46.9433 107.605 41.8892C107.605 37.8459 107.917 35.1079 108.563 33.5389C108.832 32.8885 109.117 32.5325 109.329 32.3567C109.201 32.2205 109.091 32.1458 109.016 32.1106C108.752 32.3611 108.458 32.7742 108.207 33.3895C107.543 35.0112 107.218 37.7888 107.218 41.8848L107.222 41.8892Z" fill="#C8CECF" stroke="#C8CECF" stroke-width="0.21"/>
<path d="M117.807 39.5378C117.772 39.5115 117.737 39.4851 117.71 39.4719C117.622 39.5247 117.53 39.5554 117.429 39.5598C117.512 40.4696 117.556 41.4408 117.556 42.4736C117.556 46.6092 116.413 49.8614 114.368 52.1424C113.783 52.7884 113.023 53.307 112.262 53.6982C111.519 54.1333 110.74 54.4453 110.094 54.6519C109.645 54.7925 110.507 54.8409 111.162 54.5991C112.31 54.1772 113.7 53.4609 114.654 52.3973C116.769 50.046 117.943 46.7059 117.943 42.4736C117.943 41.432 117.899 40.4564 117.811 39.5378H117.807Z" fill="#C8CECF" stroke="#C8CECF" stroke-width="0.21"/>
<path d="M117.586 37.8196C117.094 34.8926 115.977 32.6951 114.416 31.1657C113.58 30.3526 112.613 29.6143 111.641 29.2407C110.793 28.9199 110.564 29.1353 110.916 29.2759C111.887 29.6538 112.952 30.2647 113.8 31.0734C113.985 31.2492 114.143 31.4118 114.328 31.5964C115.775 33.0907 116.804 35.2441 117.248 38.0964C117.331 38.0305 117.45 37.9338 117.586 37.8239V37.8196Z" fill="#C8CECF" stroke="#C8CECF" stroke-width="0.21"/>
<path d="M67.7867 75.4705H35V76.9999H67.7867V75.4705Z" fill="#C59D00"/>
<path d="M67.7867 23H35V24.525H67.7867V23Z" fill="#C59D00"/>
<path d="M144.995 26.5334H70.3721V27.285H144.995V26.5334Z" fill="#C59D00"/>
<path d="M144.995 56.8933H70.3721V57.6492H144.995V56.8933Z" fill="#C59D00"/>
<path d="M67.7867 54.5378C65.9442 53.571 63.4817 51.3164 63.4817 46.1568C63.4817 42.3332 65.0911 38.8964 67.7867 36.9671V24.5251H35V75.4707H67.7867V54.5334V54.5378Z" fill="#E30613"/>
<path style="mix-blend-mode:multiply" d="M67.7867 54.5378C65.9442 53.571 63.4817 51.3164 63.4817 46.1568C63.4817 42.3332 65.0911 38.8964 67.7867 36.9671V24.5251H35V75.4707H67.7867V54.5334V54.5378Z" fill="url(#paint0_linear_1653_120798)"/>
<path d="M58.6929 26.8498C58.6225 26.8894 58.0069 27.241 52.1584 30.5679C51.7714 30.7921 51.3713 31.0953 51.3669 31.6491C51.3669 32.1896 51.7055 32.4841 52.0529 32.7346C52.2507 32.8796 54.0141 34.2025 54.2999 36.0571C54.3307 36.2505 54.3439 36.4571 54.3439 36.6592C54.3439 38.1755 53.504 39.8675 51.8418 41.7002C51.0151 42.6187 50.2236 43.3702 49.4936 43.946C48.9835 44.3459 48.7416 44.4997 48.4998 44.636V28.7968C48.4998 28.1419 48.0996 27.7244 47.4796 27.7244H37.8846L37.8978 27.7332C37.8362 27.7244 37.7702 27.7244 37.7043 27.7244H36.7149C36.2795 27.7244 35.9497 27.9134 35.809 28.243C35.6727 28.5639 35.7518 28.9506 36.0113 29.2275L36.5829 29.8603C38.4914 32.0754 38.5442 34.6815 38.5442 34.9716V68.0871C38.5442 68.8782 38.9795 69.3133 39.7666 69.3133H47.3785C48.17 69.3133 48.6053 68.8782 48.6053 68.0871V49.8175C48.6053 49.6154 48.6977 49.5319 48.768 49.4879L49.2825 49.1627C49.3089 49.1451 49.3265 49.1407 49.3397 49.1319C49.3485 49.1451 49.3617 49.1583 49.3837 49.2023L61.129 72.7457C61.472 73.4489 62.1228 73.5763 62.6197 73.462L66.1816 72.6138C66.7005 72.4908 67.0786 72.0733 67.1182 71.5678C67.1622 71.0492 66.8456 70.5966 66.2695 70.3549C66.2783 70.3592 66.0453 70.2538 66.0453 70.2538C66.0277 70.245 65.5 70.0164 64.8492 69.3748C64.216 68.7551 63.4288 67.6564 63.2969 65.9863C63.2573 65.4589 63.2353 64.6854 63.2353 63.6966C63.2353 61.2311 63.3629 58.159 63.3805 57.8162C63.3805 57.8118 63.3849 57.2229 63.3849 57.2229C63.3849 48.5386 59.1986 44.447 57.2813 43.0274C57.5891 42.7593 58.6181 41.8716 58.6181 41.8716C59.1062 41.4497 59.3173 41.2651 59.414 41.1596C59.4096 41.1684 59.3965 41.1992 59.3965 41.1992C63.9345 37.4899 64.2907 34.3168 64.2907 33.429L64.2819 33.2488V33.1785C64.2819 28.9814 60.3991 26.8455 60.3551 26.8235C59.8538 26.551 59.181 26.5598 58.6753 26.8455L58.6929 26.8498Z" fill="#100C08"/>
<path d="M58.8292 27.0914L52.2947 30.8095C51.9121 31.0249 51.6439 31.2622 51.6395 31.6577C51.6395 32.0401 51.8637 32.2598 52.2155 32.5191C52.7652 32.9191 54.2955 34.2375 54.5725 36.0175C54.6033 36.2284 54.6253 36.4526 54.6253 36.6679C54.6253 38.2501 53.759 40.008 52.0528 41.8934C51.103 42.9394 50.3115 43.6646 49.6695 44.1656C49.0318 44.671 48.7944 44.7985 48.4778 44.9743C48.2931 45.0578 48.2315 44.9874 48.2315 44.7853V28.7967C48.2315 28.3088 47.9589 27.9968 47.484 27.9968H36.7148C35.9893 27.9968 35.8485 28.6472 36.2135 29.034C36.363 29.1966 36.5741 29.4251 36.794 29.68C38.764 31.9698 38.8256 34.6682 38.8256 34.9671V68.087C38.8256 68.7242 39.1378 69.0363 39.771 69.0363H47.3784C48.016 69.0363 48.3283 68.7198 48.3283 68.087V49.8174C48.3283 49.5669 48.4294 49.3779 48.6185 49.2549C48.7636 49.1582 48.9483 49.0439 49.1286 48.934C49.3221 48.8066 49.4936 48.8198 49.6255 49.0791C50.4698 50.7755 53.1873 56.2208 61.3708 72.6269C61.6523 73.2026 62.1668 73.2905 62.5537 73.1982C62.5625 73.1982 66.1156 72.3456 66.1156 72.3456C66.9379 72.161 67.2105 71.0491 66.164 70.614L65.9265 70.5042C65.9265 70.5042 65.3592 70.2668 64.6557 69.5768C63.9873 68.922 63.1606 67.7705 63.0242 66.0126C62.9803 65.4237 62.9627 64.5974 62.9627 63.7053C62.9627 61.2617 63.0902 58.2556 63.1078 57.8117C63.1078 57.6183 63.1166 57.425 63.1166 57.2316C63.1166 48.5121 58.8424 44.4952 57.013 43.1767C56.9075 43.0976 56.9119 42.9878 57.013 42.9087C57.8793 42.1659 59.2337 40.9925 59.2337 40.9925C63.6751 37.3667 64.0268 34.3079 64.0268 33.4377C64.0268 33.363 64.0268 33.3146 64.0268 33.2751V33.1872C64.0268 29.157 60.2847 27.0958 60.2451 27.0739C59.8318 26.8497 59.2513 26.8585 58.8336 27.1002L58.8292 27.0914Z" fill="white"/>
<path d="M59.2379 27.7992L52.7034 31.5173C52.5847 31.5876 52.5187 31.6711 52.5187 31.7678C52.5187 31.8513 52.5759 31.9348 52.677 31.9963C52.7694 32.0491 54.9988 33.3763 55.3858 35.8858C55.4254 36.1363 55.443 36.4 55.443 36.6593C55.443 38.4568 54.5063 40.395 52.6594 42.4342C49.4669 45.9545 47.8575 46.1039 47.8399 46.1039C47.73 46.1215 47.6157 46.0864 47.5365 46.016C47.453 45.9413 47.409 45.8358 47.409 45.7172V29.1572C47.409 28.9727 47.2595 28.8188 47.0748 28.8188H37.5545C37.3654 28.8188 37.295 29.0078 37.4138 29.1485C39.5773 31.6623 39.6432 34.6421 39.6432 34.9717V67.8806C39.6432 68.0608 39.7884 68.2146 39.973 68.2146H47.1715C47.3562 68.2146 47.5057 68.0608 47.5057 67.8806V49.4045C47.5057 49.1232 47.6157 48.9211 47.8443 48.7672L49.4054 47.7784C49.5021 47.7169 49.6165 47.6993 49.7264 47.7257C49.8363 47.7564 49.9243 47.8311 49.9682 47.9278C49.9682 47.9278 53.9933 55.9924 62.0434 72.1217C62.1225 72.2843 62.3424 72.3942 62.5271 72.3546C62.5271 72.3546 63.5532 72.11 65.6053 71.6207C65.6756 71.6031 65.7284 71.5415 65.7372 71.4624C65.746 71.3745 65.6976 71.2998 65.6097 71.2559C65.5393 71.2251 64.8797 70.9395 64.0794 70.1528C63.3098 69.3968 62.3556 68.0784 62.2017 66.0655C62.0258 63.8197 62.2545 58.3789 62.2809 57.768C62.5139 46.8071 55.9003 43.4187 55.8299 43.3835C55.7244 43.3308 55.654 43.2429 55.6452 43.1506C55.632 43.0539 55.676 42.9572 55.7684 42.8781C57.7149 41.1992 58.6897 40.3584 58.6926 40.3554C63.4242 36.4879 63.2043 33.4115 63.1911 33.284C63.2615 29.6627 59.8799 27.808 59.8447 27.786C59.6776 27.6937 59.4006 27.6981 59.2291 27.7948L59.2379 27.7992Z" fill="#100C08"/>
<path d="M104.143 51.8524C102.604 50.1428 101.285 47.251 101.285 42.3726C101.285 36.2242 103.119 33.4818 104.851 31.7853C106.267 30.4053 108.11 29.4868 108.967 29.4868C109.825 29.4868 111.918 30.1636 113.334 31.5436C115.066 33.2357 116.65 36.2198 116.65 42.3682C116.65 47.251 115.071 50.1384 113.536 51.848C112.045 53.5049 109.266 54.2872 108.66 54.2872C108.352 54.2872 106.122 54.0498 104.143 51.848V51.8524ZM108.967 52.6127C109.455 52.6127 110.449 51.7865 110.937 50.5559C111.553 49.0177 111.694 46.4643 111.694 41.7837C111.694 37.1032 111.184 34.6025 110.603 33.1785C110.018 31.7546 109.28 31.4118 108.967 31.4118C108.655 31.4118 107.912 31.7502 107.332 33.1785C106.747 34.6025 106.325 37.1032 106.325 41.7837C106.325 46.4643 106.804 49.2243 107.415 50.7669C108.031 52.3051 108.822 52.6127 108.972 52.6127H108.967Z" fill="#100C08"/>
<path d="M72.9841 40.1314C73.6876 41.3048 73.6173 42.8474 72.3728 43.9593C71.7088 44.5482 68.3976 47.0094 68.2349 47.128C68.0678 47.2467 68.0458 47.3653 68.1206 47.5763C68.7186 49.3782 69.9807 50.6263 71.5241 50.6263C72.7554 50.6263 73.7712 49.8221 73.8372 49.6814C73.9119 49.5364 73.9603 49.5848 74.0043 49.6814C74.0526 49.7737 74.123 50.033 74.145 50.1737C74.167 50.3187 74.0966 50.389 73.9779 50.4593C73.8635 50.5297 69.2287 53.9313 69.1056 54.0016C68.9913 54.0675 68.8901 54.0807 68.7538 54.0236C66.5771 53.1314 64.3564 50.8769 64.3564 46.1567C64.3564 42.8913 65.6273 39.5864 68.3053 37.6746C68.9649 37.2044 70.4072 36.3034 70.5259 36.2067C70.6447 36.1188 70.715 36.1847 70.7634 36.2814C70.7634 36.2814 72.4872 39.3051 72.9841 40.1314V40.1314ZM69.3914 44.9745C70.0818 44.4559 70.5259 43.3572 69.7696 42.0212C69.3694 41.3092 68.7318 40.0347 68.6351 39.8457C68.5383 39.6611 68.3976 39.4018 68.3756 39.1645C68.3449 38.8612 68.1558 38.7733 68.0458 39.0019C67.5973 39.8984 67.2147 41.3399 67.1444 43.0144C67.074 44.6889 67.5489 45.7788 67.5973 45.9458C67.6413 46.1128 67.738 46.1567 67.8567 46.0645C67.8567 46.0645 68.7318 45.4711 69.3914 44.9745V44.9745Z" fill="#100C08"/>
<path d="M91.0441 40.1314C91.7521 41.3048 91.6773 42.8474 90.4329 43.9593C89.7689 44.5482 86.4621 47.0094 86.295 47.128C86.1279 47.2467 86.1059 47.3653 86.1762 47.5763C86.7787 49.3782 88.0363 50.6263 89.5842 50.6263C90.8155 50.6263 91.8313 49.8221 91.9016 49.6814C91.972 49.5364 92.0203 49.5848 92.0687 49.6814C92.1127 49.7737 92.183 50.033 92.2094 50.1737C92.2314 50.3187 92.1611 50.389 92.0423 50.4593C91.9236 50.5297 87.2932 53.9313 87.1701 54.0016C87.0513 54.0675 86.9546 54.0807 86.8183 54.0236C84.6416 53.1314 82.4209 50.8769 82.4209 46.1567C82.4209 42.8913 83.6873 39.5864 86.3697 37.6746C87.0337 37.2044 88.4717 36.3034 88.5904 36.2067C88.7091 36.1188 88.7795 36.1847 88.8279 36.2814C88.8279 36.2814 90.5516 39.3051 91.0485 40.1314H91.0441ZM87.4515 44.9745C88.1419 44.4559 88.586 43.3572 87.8297 42.0212C87.4295 41.3092 86.7875 40.0347 86.6951 39.8457C86.5984 39.6611 86.4577 39.4018 86.4357 39.1645C86.4049 38.8612 86.2202 38.7733 86.1059 39.0019C85.6574 39.8984 85.2792 41.3399 85.2088 43.0144C85.1385 44.6889 85.609 45.7788 85.6574 45.9458C85.7013 46.1128 85.8025 46.1567 85.9168 46.0645C85.9168 46.0645 86.7919 45.4711 87.4559 44.9745H87.4515Z" fill="#100C08"/>
<path d="M139.78 40.0302C140.493 41.208 140.418 42.7418 139.169 43.8537C138.51 44.4471 135.194 46.9038 135.031 47.0225C134.864 47.1411 134.842 47.2554 134.913 47.4707C135.511 49.2639 136.773 50.5164 138.316 50.5164C139.543 50.5164 140.563 49.7121 140.634 49.5715C140.704 49.4309 140.752 49.4748 140.801 49.5715C140.845 49.6682 140.915 49.9275 140.941 50.0681C140.963 50.2088 140.897 50.2791 140.774 50.3538C140.656 50.4241 136.025 53.8257 135.906 53.8961C135.792 53.9708 135.691 53.9796 135.555 53.9224C133.378 53.0215 131.157 50.7713 131.157 46.0512C131.157 42.7858 132.424 39.4808 135.106 37.5734C135.77 37.0988 137.212 36.1978 137.331 36.1056C137.45 36.0089 137.52 36.0836 137.569 36.1759C137.569 36.1759 139.292 39.1996 139.785 40.0258L139.78 40.0302ZM136.192 44.8734C136.883 44.3548 137.327 43.256 136.57 41.92C136.17 41.2124 135.528 39.9379 135.436 39.7445C135.339 39.5599 135.198 39.3006 135.176 39.0589C135.146 38.7557 134.961 38.6678 134.847 38.8919C134.398 39.7885 134.02 41.2344 133.945 42.9088C133.875 44.5877 134.35 45.6688 134.398 45.8402C134.442 46.0072 134.539 46.0512 134.658 45.9589C134.658 45.9589 135.533 45.3656 136.197 44.869L136.192 44.8734Z" fill="#100C08"/>
<path d="M81.647 36.9318C81.4711 36.9318 79.7078 36.945 79.5363 36.945C79.3648 36.945 79.3076 36.8923 79.3076 36.7253C79.3076 36.5583 79.2461 32.7347 79.2373 32.4842C79.2285 32.2469 79.1537 32.2557 79.0086 32.2557C78.8635 32.2557 78.7624 32.3567 78.714 32.4446C78.67 32.5369 77.3376 34.5454 76.3482 35.8111C75.3632 37.0812 74.343 38.0789 74.3034 38.1184C74.2595 38.1624 74.2463 38.2239 74.2463 38.2547C74.2463 38.2547 74.2463 38.5096 74.2199 38.659C74.2067 38.7293 74.2331 38.7909 74.3474 38.7909C74.4442 38.7909 74.686 38.7909 74.8619 38.7909C75.4907 38.7909 75.7238 39.2919 75.7238 39.5907C75.7238 39.7621 75.7986 47.3125 75.7986 48.3849C75.7986 49.4573 75.7062 50.4769 76.124 51.6943C76.4977 52.7842 77.7114 53.3819 77.9225 53.4742C78.116 53.5489 78.2963 53.4962 78.4018 53.3731C78.5029 53.2456 80.9215 50.6043 81.049 50.4901C81.1633 50.389 81.1501 50.3055 81.049 50.2879C80.5257 50.2 80.1519 49.8967 79.8793 49.6243C79.5275 49.2771 79.2945 48.7497 79.2945 47.8751C79.2945 47.0005 79.2945 39.4896 79.2945 39.3051C79.2945 39.1205 79.4044 39.0677 79.5275 39.0677C79.6506 39.0677 80.8995 39.0897 81.049 39.0633C81.1985 39.037 81.2469 39.0106 81.2953 38.8875C81.348 38.7601 81.8053 37.2395 81.8317 37.0856C81.8493 36.9846 81.8317 36.9362 81.6558 36.9362L81.647 36.9318Z" fill="#100C08"/>
<path d="M125.132 42.2451C125.132 44.6227 125.18 47.9408 125.18 48.5957C125.18 49.6724 125.088 50.6833 125.506 51.905C125.884 52.9906 126.957 53.6103 127.172 53.7025C127.362 53.7773 127.551 53.7245 127.647 53.6015C127.749 53.4784 130.114 51.114 130.242 50.9953C130.356 50.8942 130.343 50.8107 130.242 50.7931C129.714 50.7096 129.384 50.4943 129.156 50.1822C128.769 49.6549 128.734 48.9824 128.734 48.1035C128.734 47.3036 128.676 40.7244 128.676 39.4983C128.676 38.2721 128.052 37.525 127.74 37.2525C127.129 36.7163 126.504 36.4218 126.02 36.2636C125.818 36.1933 125.695 36.1845 125.44 36.3823C125.167 36.5932 122.753 38.9137 122.661 39.006C122.568 39.0983 122.507 39.0368 122.507 38.8522C122.507 38.6676 122.415 37.7843 121.896 37.2041C121.377 36.624 120.77 36.3735 120.585 36.2636C120.414 36.1538 120.335 36.1625 120.238 36.2504C120 36.4658 119.503 36.9097 118.932 37.4415C118.378 37.9513 117.723 38.4787 117.525 38.6193C117.234 38.8171 117.446 39.1027 117.538 38.9841C117.63 38.8654 117.635 38.8083 117.846 38.8874C118.035 38.9621 119.007 39.3752 119.007 40.9925V53.3114C119.007 53.4301 119.064 53.4916 119.187 53.4916H122.393C122.485 53.4916 122.604 53.4301 122.604 53.2762C122.604 53.1224 122.555 42.5132 122.555 41.1112C122.555 39.9773 122.96 39.4104 123.567 39.4104C124.116 39.4104 125.145 40.1355 125.145 42.2363L125.132 42.2451Z" fill="#100C08"/>
<path d="M96.6115 32.7433C96.6115 34.4485 96.6115 47.119 96.6115 47.8749C96.6115 48.7495 96.8489 49.2725 97.2007 49.6241C97.4733 49.8966 97.8383 50.1691 98.4012 50.1163C98.5111 50.1075 98.6035 50.2745 98.4935 50.38C98.366 50.4943 95.5165 53.2455 95.4154 53.3729C95.3142 53.496 95.1296 53.5487 94.9405 53.474C94.7294 53.3817 93.7708 52.7884 93.397 51.6941C93.01 50.5734 93.0716 49.567 93.0716 48.3847C93.0716 47.4486 93.0496 37.1822 93.0496 35.4726C93.0496 33.8904 92.5263 33.0949 91.6688 32.4401C91.4534 32.2775 91.4666 32.1632 91.682 32.0401C91.8975 31.9171 92.8121 31.3721 93.5641 30.8975C94.316 30.4228 94.8701 30.0581 94.9449 29.935C95.0196 29.8075 95.1296 29.7856 95.323 29.8559C95.5077 29.935 95.9738 30.3042 96.2861 30.9238C96.5895 31.5172 96.6159 32.0885 96.6159 32.7433H96.6115Z" fill="#100C08"/>
<path d="M142.81 35.0243H143.025C143.197 35.0243 143.355 35.099 143.355 35.3187C143.355 35.4594 143.267 35.6571 142.999 35.6571H142.81V35.0243ZM142.286 36.7822H142.81V35.9648H143.056L143.504 36.8174L144.054 36.7383L143.513 35.8549C143.72 35.7494 143.896 35.5648 143.896 35.2572C143.896 34.91 143.61 34.7122 143.14 34.7122H142.286V36.7822V36.7822ZM143.043 37.7579C144.12 37.7579 145 36.8833 145 35.8109C145 34.7386 144.12 33.8816 143.043 33.8816C141.965 33.8816 141.077 34.7518 141.077 35.8109C141.077 36.8701 141.957 37.7579 143.043 37.7579ZM143.043 37.4371C142.155 37.4371 141.433 36.6899 141.433 35.8109C141.433 34.932 142.155 34.198 143.043 34.198C143.931 34.198 144.643 34.9408 144.643 35.8109C144.643 36.6811 143.927 37.4371 143.043 37.4371V37.4371Z" fill="#100C08"/>
<path d="M78.5072 61.0816C78.4764 61.0465 78.45 61.0465 78.4236 61.0772C78.3972 61.108 78.1598 61.2574 77.6145 61.5299C77.0736 61.8024 76.5152 62.0617 76.4844 62.0705C76.458 62.0749 76.4536 62.0925 76.4536 62.1144C76.4536 62.1408 76.4668 62.1848 76.4888 62.2287C76.5064 62.277 76.5196 62.321 76.5328 62.3342C76.5459 62.3518 76.5679 62.3605 76.6075 62.3342C76.6515 62.321 77.0473 62.1364 77.6145 62.9099C77.8827 63.2747 77.8564 64.1141 77.72 64.8173C77.6013 65.4282 77.6409 65.4458 77.2715 66.3863C76.9505 67.2081 76.2777 68.3815 75.9743 68.9265C75.9743 68.9265 75.9743 68.9177 75.9743 68.9133L75.8907 69.0452C75.8907 69.0452 75.8468 68.9792 75.8424 69.0012L73.8504 63.6351C73.7888 63.4461 73.7404 63.1956 73.736 63.0505C73.736 62.7121 73.9911 62.6023 74.7342 62.4572V62.0485H70.3984V62.4616C71.1548 62.5583 71.3395 62.7561 71.7396 63.824L74.2813 70.4384H75.9303C75.9743 70.2757 78.0498 66.3335 78.6259 65.0195C79.3163 63.4373 79.2987 62.2814 78.8678 61.5695C78.6831 61.2662 78.5204 61.1212 78.4984 61.086L78.5072 61.0816Z" fill="#100C08"/>
<path d="M97.5781 62.5101C96.8965 61.9651 96.0566 61.7498 94.645 61.7498H90.0762V62.031L90.4983 62.0794C90.771 62.1189 91.0436 62.242 91.1403 62.3782C91.2371 62.5145 91.2635 62.6903 91.2635 63.244L91.2723 68.5399C91.2723 69.1024 91.2459 69.287 91.1491 69.41C91.0524 69.5463 90.7798 69.6693 90.5071 69.7089L90.0894 69.7616V70.0209H94.6582C95.9247 70.0165 96.7734 69.8276 97.3934 69.4013C98.418 68.6937 99.0116 67.4367 99.0116 65.8458C99.0116 64.3955 98.5103 63.2748 97.5781 62.5101V62.5101ZM93.9327 69.5067H93.3434L93.3302 62.2464H93.8799C95.9379 62.2464 96.7865 63.2924 96.7865 65.8853C96.7909 68.4388 95.951 69.5023 93.9283 69.5067H93.9327Z" fill="#100C08"/>
<path d="M84.6635 61.543C83.164 61.543 82.1043 61.8946 81.3655 62.6417C80.6663 63.3625 80.1826 64.4129 80.1826 65.8017C80.1826 67.3399 80.6487 68.3771 81.3743 69.0934C82.1394 69.8362 83.1772 70.1834 84.6635 70.179C87.601 70.1746 89.1576 68.7594 89.1532 65.8456C89.1488 64.3865 88.6651 63.3185 87.9484 62.6285C87.1876 61.899 86.1191 61.5386 84.6591 61.543H84.6635ZM84.6811 69.6911C83.2168 69.6911 82.478 68.3902 82.4736 65.8148C82.4692 63.3449 83.2256 62.044 84.6547 62.044C86.1191 62.044 86.8578 63.3273 86.8622 65.8544C86.8622 68.399 86.1279 69.6867 84.6811 69.6911V69.6911Z" fill="#100C08"/>
<path d="M116.166 68.0257L113.804 61.7366H112.032C111.971 62.0926 111.892 62.4617 111.76 62.7826L110.018 67.3445C109.359 68.9486 109.042 69.3881 108.47 69.5331C107.908 68.575 107.459 67.5334 106.835 66.6193C106.549 66.2062 106.232 65.8106 105.867 65.4898C105.682 65.3316 105.485 65.191 105.278 65.0811C105.177 65.0283 104.873 64.9097 104.816 64.8745L106.861 63.099C107.666 62.4046 108.132 62.0794 108.963 61.9915V61.7234H105.485V62.0003C106.096 62.0486 106.276 62.1277 106.276 62.4134C106.276 62.6551 106.232 62.9188 105.084 63.9296C104.785 64.1933 104.398 64.5845 104.398 64.5845L103.031 65.8018V63.2001C103.031 62.6331 103.048 62.5101 103.15 62.3738C103.246 62.2376 103.519 62.1101 103.787 62.075L104.209 62.0222V61.7322L99.7988 61.741V62.031L100.217 62.0794C100.489 62.1189 100.762 62.242 100.859 62.3782C100.96 62.5145 100.986 62.6331 100.986 63.2045L100.995 68.5223C100.995 69.0892 100.969 69.2518 100.872 69.3881C100.775 69.5243 100.502 69.6474 100.225 69.6869L99.8076 69.7353V70.0078L104.135 69.9946V69.7265L103.796 69.6737C103.523 69.6386 103.251 69.5155 103.154 69.3793C103.057 69.243 103.026 69.0804 103.026 68.5135V66.3995L103.471 66.0348C103.471 66.0348 103.607 65.9205 103.88 66.0963C104.117 66.2501 104.486 66.4655 104.895 67.0148C105.449 67.8323 105.872 68.7508 106.346 69.621C106.575 70.0429 106.821 70.5176 107.217 70.7813C107.283 70.8252 107.358 70.8692 107.433 70.9043C107.565 70.9746 107.635 71.0142 107.824 71.0406C107.982 71.0625 108.018 71.0625 108.246 71.0625C108.633 71.0625 109.2 71.0625 109.548 71.0625C109.825 71.0625 109.825 71.0625 109.57 70.8779C109.372 70.7373 109.104 70.4604 108.774 70.0165H111.14L111.109 69.7528C110.401 69.6562 110.102 69.4804 110.102 69.1464C110.102 68.975 110.207 68.5267 110.317 68.2015L110.735 67.0148H113.611L114.077 68.285C114.209 68.6893 114.284 69.0233 114.284 69.1727C114.284 69.4804 114.077 69.5946 113.334 69.7089L113.325 70.0121L117.573 69.999V69.7089C116.843 69.5858 116.65 69.3353 116.148 68.0344L116.166 68.0257ZM110.933 66.5622L112.239 63.0023L113.488 66.5578H110.933V66.5622Z" fill="#100C08"/>
<defs>
<linearGradient id="paint0_linear_1653_120798" x1="51.3934" y1="75.4707" x2="51.3934" y2="24.5251" gradientUnits="userSpaceOnUse">
<stop stop-color="#F7F7F7"/>
<stop offset="0.15" stop-color="#EEEEEE"/>
<stop offset="0.38" stop-color="#D7D6D5"/>
<stop offset="0.68" stop-color="#B1AFAE"/>
<stop offset="1" stop-color="#827E7C"/>
</linearGradient>
</defs>
</svg>
