<?xml version="1.0" encoding="utf-8"?>
<!-- Generator: Adobe Illustrator 27.7.0, SVG Export Plug-In . SVG Version: 6.00 Build 0)  -->
<svg version="1.1" id="Layer_1" xmlns="http://www.w3.org/2000/svg" xmlns:xlink="http://www.w3.org/1999/xlink" x="0px" y="0px"
	 viewBox="0 0 180 100" style="enable-background:new 0 0 180 100;" xml:space="preserve">
<style type="text/css">
	.st0{fill-rule:evenodd;clip-rule:evenodd;fill:#D62027;}
	.st1{fill-rule:evenodd;clip-rule:evenodd;fill:#FDFEFF;}
</style>
<g>
	<g>
		<path class="st0" d="M90,32.9c-30.8,0-55.5,6.5-55.5,6.5v28.9c0,0,24.7-6.6,55.5-6.6s55.5,6.6,55.5,6.6l0-28.9
			C145.5,39.4,120.8,32.9,90,32.9z"/>
		<path class="st1" d="M88.2,47.2L88.2,47.2c0.4-0.3,0.6-0.7,0.6-1.2v0l0-4.6l0-0.1v0c0-0.8-0.7-1.4-1.5-1.4l-0.1,0L81,39.9l-0.1,0
			v14.8l2.7-0.1l0-4.2l1.5-1.1l1.7,5.2l3,0l-2.5-6.7L88.2,47.2z M85.4,46.1l-1.8,1.3v-4.9l2.1-0.1c0.2,0,0.3,0.1,0.3,0.3l0,1.8
			C86,45.3,85.9,45.8,85.4,46.1 M68.3,40.7l2.5,14.6l-2.9,0.2l-1.3-8.7l-0.1-1.1l-0.2,1.4l-1.7,8.6l-2.8,0.3l-1.4-8.7l-0.1-1.2
			l-0.1,1.3l-1.3,8.9l-3,0.4l2.8-15.2l2.9-0.3l1.5,8.1l0.3,2.3l0.3-2.3L65,41L68.3,40.7z M76.6,40.1l0,14.8l-3,0.2l0.1-14.8
			L76.6,40.1z M51.6,48.7c0.8,0,1.5,0.7,1.5,1.5v0v5.9c0,0.7-0.5,1.3-1.2,1.5c0,0-0.1,0-0.1,0l-5.4,1.1c-0.1,0-0.2,0-0.3,0
			c-0.8,0-1.5-0.7-1.5-1.5v0v0l0-3.1l2.9-0.5l-0.1,2.2l0,0c0,0.2,0.1,0.3,0.3,0.3c0,0,0.1,0,0.1,0l2.3-0.5c0.1,0,0.2-0.2,0.2-0.3V52
			c0-0.2-0.1-0.3-0.3-0.3c0,0,0,0-0.1,0l-3.5,0.6c-0.1,0-0.2,0-0.3,0c-0.8,0-1.5-0.7-1.5-1.5v-5.3v0c0-0.7,0.6-1.4,1.3-1.5l5.3-1
			c0.1,0,0.2,0,0.4,0c0.8,0,1.5,0.6,1.5,1.4v0v0.1l0,2.5l-2.8,0.5l0-1.5c0-0.2-0.1-0.3-0.3-0.3c0,0-0.1,0-0.1,0l-2.3,0.5
			c-0.1,0-0.2,0.2-0.2,0.3l0,2.6c0,0.2,0.1,0.3,0.3,0.3c0,0,0,0,0.1,0l3.6-0.7l0,0C51.4,48.7,51.5,48.7,51.6,48.7 M131.2,58.3
			l-2.8-0.5l0-14.7l7.4,1.4v2.6l-4.6-1l0,3.2l3.9,0.8v2.5l-3.9-0.8L131.2,58.3z M95.7,54.6l-2.5,0V39.8l3.2,0.1l2.6,7.3l0.5,1.8V40
			l2.5,0.1L102,54.9L99,54.7l-2.9-8.2l-0.5-1.6L95.7,54.6z M107.7,55.2l5.3,0.4l0.1,0l0.1,0c0.8,0,1.5-0.7,1.5-1.5v0V42.5
			c0-0.8-0.6-1.4-1.4-1.5l-5.3-0.5c0,0-0.1,0-0.1,0c-0.8,0-1.5,0.7-1.5,1.5l0,11.7C106.3,54.5,107,55.2,107.7,55.2 M109.4,43.2
			L109.4,43.2l2.2,0.2c0.1,0,0.3,0.1,0.3,0.3l0,8.9c0,0.2-0.1,0.3-0.3,0.3c0,0,0,0-0.1,0l-2.1-0.2c-0.1,0-0.3-0.1-0.3-0.3l0-8.9
			C109.1,43.3,109.3,43.2,109.4,43.2 M118.9,56.3l0-7.3l0-7.3l7.3,1.1v2.6l-4.6-0.7l0,3l3.6,0.6l0,2.6l-3.6-0.6v6.3L118.9,56.3z
			 M135.7,59.1l-0.6-0.1v-2.4l-0.4-0.1v-0.5l1.5,0.3v0.5l-0.4-0.1V59.1z M138.1,59.5l-0.5-0.1l-0.4-2.1l-0.1,2l-0.6-0.1l0.3-2.9
			l0.7,0.1l0.4,2.1l0.4-1.9l0.7,0.1l0.3,3l-0.6-0.1l-0.1-2.1L138.1,59.5z"/>
	</g>
</g>
</svg>
