<svg width="180" height="100" viewBox="0 0 180 100" fill="none" xmlns="http://www.w3.org/2000/svg">
<mask id="mask0_1630_119287" style="mask-type:alpha" maskUnits="userSpaceOnUse" x="0" y="0" width="180" height="100">
<path d="M180 0H0V100H180V0Z" fill="white"/>
</mask>
<g mask="url(#mask0_1630_119287)">
<path d="M61.2927 43.0168H58.207V64.1318H61.2927V43.0168Z" fill="#1D1E1C"/>
<path fill-rule="evenodd" clip-rule="evenodd" d="M65.0858 39.2188L59.5572 36L54.1572 39.09L55.3144 41.15L59.493 38.7681L63.9287 41.2788L65.0858 39.2188Z" fill="#1D1E1C"/>
<path d="M51.0072 58.3382C50.1715 59.7544 49.3357 61.235 47.2786 62.5225C44.7072 64.1963 41.3643 64.6469 38.7929 64.6469C30.2429 64.6469 26 59.69 26 53.4457C26 48.4244 28.5072 46.1713 29.9215 45.0769C30.8215 44.3688 33.3286 42.4375 38.7286 42.4375C40.2714 42.4375 43.9357 42.6306 46.7643 44.4331C49.0143 45.8494 50.0429 47.5875 50.6214 48.5532L47.4072 49.2613C46.9572 48.4244 46.4429 47.5232 45.0929 46.6863C43.8072 45.8494 41.5572 45.0769 38.8572 45.0769C33.8429 45.0769 29.15 47.4588 29.15 53.3813C29.15 55.5057 29.7286 57.63 31.3357 59.3682C32.75 60.8488 35.1929 62.0719 38.9857 62.0719C42.2643 62.0719 44.45 61.235 45.7357 60.2694C46.8929 59.4325 47.5357 58.3382 47.8572 57.7588L51.0072 58.3382Z" fill="#1D1E1C"/>
<path d="M68.6855 43.0168H83.0212C84.8855 43.0168 87.1355 43.0812 88.9355 44.6906C89.6426 45.2699 90.7998 46.6862 90.7998 49.1968C90.7998 54.2824 86.5569 54.9262 85.1426 55.1837L92.9212 64.0674H88.9997L81.864 55.6987H71.6426V64.1318H68.6855V43.0168ZM71.6426 45.5274V53.1881H82.0569C83.7283 53.1881 85.7856 53.1881 87.007 51.5787C87.5213 50.8706 87.7141 50.0981 87.7141 49.3256C87.7141 48.4887 87.5213 47.7162 87.0713 47.0724C86.107 45.5274 84.5641 45.5274 83.2141 45.5274H71.6426Z" fill="#1D1E1C"/>
<path d="M121.594 53.832C121.594 61.042 115.68 64.6469 108.93 64.6469C105.844 64.6469 102.758 64.0676 100.251 62.3295C98.1935 60.9132 96.0078 58.2739 96.0078 53.832C96.0078 46.0426 102.437 42.502 108.737 42.502C116.13 42.502 121.594 46.8795 121.594 53.832ZM98.965 53.6389C98.965 55.3126 99.415 57.437 100.83 59.0464C102.823 61.3639 105.908 62.072 108.93 62.072C116.708 62.072 118.637 57.1151 118.637 53.5745C118.637 48.0382 114.201 44.9482 108.415 45.077C103.98 45.2057 98.965 47.3945 98.965 53.6389Z" fill="#1D1E1C"/>
<path d="M151.357 58.3382C150.521 59.7544 149.686 61.235 147.629 62.5225C145.057 64.1963 141.714 64.6469 139.143 64.6469C130.593 64.6469 126.35 59.69 126.35 53.4457C126.35 48.4244 128.857 46.1713 130.271 45.0769C131.171 44.3688 133.679 42.4375 139.079 42.4375C140.621 42.4375 144.286 42.6306 147.114 44.4331C149.364 45.8494 150.393 47.5875 150.971 48.5532L147.757 49.2613C147.307 48.4244 146.793 47.5232 145.443 46.6863C144.157 45.8494 141.907 45.0769 139.207 45.0769C134.193 45.0769 129.5 47.4588 129.5 53.3813C129.5 55.5057 130.079 57.63 131.686 59.3682C133.1 60.8488 135.543 62.0719 139.336 62.0719C142.614 62.0719 144.8 61.235 146.086 60.2694C147.243 59.4325 147.886 58.3382 148.207 57.7588L151.357 58.3382Z" fill="#1D1E1C"/>
<path d="M152.965 63.4882H153.287V61.75H152.772L152.322 62.9732L151.872 61.75H151.358V63.4882H151.68V62.1363L152.194 63.4882H152.451L152.965 62.1363V63.4882ZM150.137 63.4882H150.522V62.0719H151.037V61.75H149.622V62.0075H150.137V63.4882Z" fill="#1D1E1C"/>
</g>
</svg>
