<svg width="180" height="100" viewBox="0 0 180 100" fill="none" xmlns="http://www.w3.org/2000/svg">
<rect width="180" height="100" fill="white"/>
<mask id="mask0_1768_119147" style="mask-type:alpha" maskUnits="userSpaceOnUse" x="0" y="0" width="180" height="100">
<path d="M180 0H0V100H180V0Z" fill="white"/>
</mask>
<g mask="url(#mask0_1768_119147)">
</g>
<path d="M47.1895 65C46.6143 64.5931 45.9085 64.6086 45.2706 64.4026C44.685 64.2172 44.5804 64.0678 44.8314 63.5322C45.0457 63.0738 45.1765 62.5999 45.1608 62.1004C45.1242 60.7922 45.3751 59.4737 44.9673 58.1758C44.915 58.011 44.9673 57.8101 44.9987 57.6299C45.1085 56.9809 45.1869 56.332 45.1869 55.6676C45.1869 52.3765 45.1974 49.0803 45.2026 45.7892C45.2026 45.0372 45.1033 44.311 44.6954 43.6569C44.481 43.317 44.549 43.0286 44.847 42.7865C45.3438 42.3796 45.8457 41.9779 46.3425 41.571C46.6823 41.2929 46.9542 41.3805 47.1686 41.7307C47.2522 41.8698 47.3307 42.0191 47.4091 42.1582C47.6549 42.596 47.9268 42.6732 48.3503 42.323C48.847 41.9213 49.4012 41.5865 49.9346 41.2208C50.3372 40.9478 50.7503 40.9581 51.1738 41.1693C52.2091 41.6843 52.7006 42.5857 52.9568 43.6466C53.5215 45.9694 53.4849 48.3386 53.4378 50.7026C53.4117 52.0829 53.2496 53.4426 52.8574 54.7817C52.2143 56.9758 50.8444 58.5363 48.7111 59.4119C48.0993 59.6591 47.8431 60.0093 47.8692 60.6686C47.9111 61.7759 47.8535 62.8935 47.8901 64.0008C47.9058 64.4901 47.7437 64.7991 47.3098 64.9949H47.1843L47.1895 65ZM47.8797 50.3215C47.8797 52.4486 47.8797 54.1946 47.8797 55.9457C47.8797 56.4453 47.9372 56.9294 48.1986 57.3723C48.7006 58.2067 49.2967 58.2118 49.7829 57.3723C50.3006 56.4762 50.4679 55.4822 50.562 54.4778C50.8339 51.5215 50.7346 48.5652 50.4261 45.6141C50.3529 44.9188 50.2431 44.2235 49.9503 43.5797C49.5581 42.7299 48.8731 42.6784 48.3398 43.4355C48.0836 43.8011 47.9686 44.2132 47.9424 44.651C47.8065 46.6647 47.932 48.6837 47.8849 50.3215H47.8797Z" fill="#040404"/>
<path d="M24 48.8227C24.8104 47.942 24.8471 46.8089 24.9935 45.7273C25.2967 43.4045 25.8353 41.159 27.1372 39.1658C28.5908 36.9357 30.6091 35.7202 33.3751 35.9674C35.2469 36.1322 36.0313 37.5949 35.1581 39.243C34.6927 40.1186 33.9084 40.7263 33.2548 41.4371C32.7895 41.9418 32.3241 42.4363 31.9633 43.0182C31.8744 43.1625 31.7489 43.3221 31.5712 43.2655C31.3568 43.1985 31.3568 42.9822 31.3882 42.7916C31.5084 42.1169 31.8169 41.5143 32.1202 40.9066C32.3764 40.3916 32.6326 39.8714 32.8313 39.3357C33.0666 38.6971 32.8993 38.0636 32.4496 37.77C31.8953 37.4095 31.3254 37.5074 30.8078 37.8524C29.945 38.4293 29.5633 39.3203 29.2653 40.2474C28.4496 42.7865 28.2928 45.4132 28.2562 48.045C28.2143 51.1455 28.6065 54.1842 29.762 57.1045C30.8025 59.7363 32.4705 61.7964 35.0326 63.1149C35.3986 63.3055 35.7594 63.5167 36.1045 63.7433C36.3868 63.9287 36.6692 64.1656 36.4757 64.5467C36.2979 64.9073 35.9581 64.8249 35.6496 64.7373C31.8587 63.7124 28.983 61.5544 27.1268 58.1088C25.9817 55.9765 25.3385 53.7052 24.9935 51.3258C24.8889 50.5996 24.6588 49.894 24 49.4356V48.8175V48.8227Z" fill="#040404"/>
<path d="M74.1385 34C75.4875 35.3082 75.4927 36.9615 74.1542 38.1151C73.6941 38.5117 73.4483 38.4602 73.2706 37.8885C73.0875 37.2808 72.6797 36.8121 72.3346 36.3074C72.0418 35.8799 72.047 35.5297 72.4549 35.1794C72.8993 34.7932 73.3281 34.3914 73.762 34H74.1385Z" fill="#040404"/>
<path d="M106.368 58.5569C104.606 58.4076 104.287 58.1398 104.104 56.4041C103.822 53.7465 103.586 51.0838 103.335 48.421C103.178 46.7626 103.016 45.1042 102.849 43.4509C102.833 43.2861 102.912 43.0235 102.635 43.0132C102.337 43.0029 102.373 43.2861 102.342 43.4715C101.84 46.0931 101.338 48.7197 100.846 51.3464C100.459 53.4066 100.073 55.4667 99.6961 57.5269C99.5967 58.0779 99.3196 58.3458 98.7183 58.3252C98.1065 58.3046 97.8922 58.0007 97.819 57.4496C97.2072 52.7628 96.585 48.076 95.9576 43.3891C95.9314 43.1934 96.036 42.8586 95.6857 42.8741C95.419 42.8844 95.4661 43.1728 95.4295 43.3685C94.687 47.5764 93.9863 51.7945 93.1968 55.9972C92.5955 59.2007 90.206 61.1373 86.9799 61.1785C86.7812 61.1785 86.5197 61.2454 86.4413 60.993C86.3472 60.6995 86.6348 60.6634 86.8125 60.6016C89.1864 59.8291 90.436 58.0934 91.053 55.8169C91.6125 53.7413 91.7118 51.5936 92.0517 49.4872C92.1772 48.6991 92.5066 47.8493 92.1511 47.118C91.6648 46.124 91.8373 45.4544 92.5798 44.6613C93.2595 43.9351 93.2177 42.8638 93.4059 41.9213C93.6778 40.5307 93.9079 39.1298 94.1484 37.734C94.5406 35.4524 93.7458 34.7365 91.4975 35.3288C91.0687 35.4421 90.6556 35.576 90.321 35.8696C89.9027 36.2404 89.6308 36.6319 90.0596 37.1932C90.3367 37.5538 90.1746 37.8061 89.7406 37.8937C89.7197 37.8937 89.6988 37.904 89.6779 37.904C88.7733 38.0946 87.8897 37.7752 87.6701 37.1829C87.4295 36.5392 87.8165 35.8284 88.7001 35.3597C89.9864 34.6747 91.4138 34.5923 92.8256 34.5357C94.0961 34.4842 95.3719 34.5202 96.6477 34.5254C97.3798 34.5254 97.5575 34.6696 97.6517 35.4061C98.0072 38.1358 98.3523 40.8706 98.7026 43.6054C98.8177 44.5016 98.9379 45.3978 99.0582 46.2939C99.0791 46.4639 99.0268 46.7266 99.2882 46.7317C99.5863 46.742 99.5444 46.4639 99.581 46.2733C100.25 42.7196 100.925 39.1658 101.584 35.6121C101.756 34.6902 101.819 34.6181 102.739 34.6335C103.471 34.6438 104.198 34.6593 104.93 34.6953C105.474 34.7211 105.594 34.9219 105.354 35.4112C105.082 35.9675 105.003 36.5392 105.066 37.1469C105.662 43.2243 106.248 49.3017 106.838 55.3792C106.927 56.2702 107.168 57.1045 107.696 57.8565C108.031 58.3303 107.9 58.5518 107.304 58.5672C106.99 58.5775 106.682 58.5672 106.368 58.5672V58.5569Z" fill="#040404"/>
<path d="M128.82 63.6557C127.534 63.7124 126.384 63.048 125.197 62.5123C124.622 62.2548 124.062 62.0127 123.409 62.09C123.241 62.1106 122.99 62.1209 122.938 61.884C122.886 61.6471 123.126 61.5904 123.278 61.5028C124.548 60.7663 125.876 60.6633 127.231 61.2299C127.921 61.5183 128.58 61.8737 129.249 62.2033C129.782 62.466 130.326 62.5844 130.833 62.1878C131.346 61.7913 131.356 61.2247 131.199 60.6685C130.959 59.8187 130.682 58.9843 130.41 58.1448C130.274 57.7276 130.039 57.671 129.662 57.944C129.296 58.2066 128.857 58.3766 128.48 58.6289C127.832 59.0616 127.267 58.8865 126.708 58.4641C125.667 57.6761 125.317 56.5482 125.155 55.343C125.024 54.3851 124.961 53.4219 124.883 52.4588C124.82 51.712 124.679 50.9961 124.209 50.3781C124.036 50.1515 123.905 49.8939 124.13 49.6467C124.935 48.7763 124.972 47.6638 125.15 46.5977C125.427 44.929 126.012 43.4251 127.393 42.3281C128.156 41.7203 129.05 41.4062 129.981 41.1589C130.3 41.0765 130.603 41.128 130.88 41.2877C131.55 41.6688 132.156 42.1427 132.763 42.6165C133.087 42.8637 133.113 43.2139 133.024 43.5693C132.841 44.2955 132.81 45.032 132.81 45.7737C132.81 48.9823 132.825 52.1962 132.805 55.4048C132.794 56.5482 132.94 57.6555 133.218 58.7577C133.798 61.0548 132.564 62.9913 130.211 63.5269C129.782 63.6248 129.348 63.6711 128.82 63.666V63.6557ZM130.222 50.1257C130.222 48.2767 130.232 46.4278 130.216 44.5788C130.216 43.9659 129.892 43.4869 129.385 43.1367C128.867 42.7761 128.575 42.838 128.276 43.3839C128.02 43.8577 127.869 44.3676 127.775 44.8981C127.398 47.0612 127.487 49.2398 127.555 51.4133C127.602 52.9893 127.665 54.5756 128.151 56.1001C128.329 56.6564 128.58 57.2126 129.28 57.2538C129.72 57.2796 130.096 56.6512 130.164 55.8529C130.331 53.9473 130.242 52.0365 130.222 50.1257Z" fill="#040404"/>
<path d="M83.0946 49.8683C83.0946 47.8751 83.0946 45.8767 83.0946 43.8835C83.0946 43.5539 83.079 43.2243 83.0267 42.8998C82.9378 42.323 82.394 41.7925 81.9234 41.7976C81.411 41.7976 80.6842 42.4311 80.611 42.9513C80.5849 43.1316 80.5953 43.3221 80.5953 43.5076C80.5953 47.4785 80.5953 51.4494 80.5953 55.4203C80.5953 56.2083 80.6685 56.9757 81.0659 57.6865C81.296 58.0934 81.1077 58.3251 80.6685 58.3354C79.7064 58.356 78.7496 58.3509 77.7875 58.3612C77.3431 58.3612 77.1967 58.1243 77.3797 57.7689C77.9078 56.7543 77.8816 55.6676 77.8764 54.5757C77.8764 50.9962 77.8659 47.4167 77.8764 43.8372C77.8764 43.1058 77.7875 42.4002 77.4686 41.741C77.2176 41.226 77.3901 40.9272 77.8816 40.7212C78.2476 40.5719 78.6189 40.4328 78.964 40.2422C79.5078 39.9435 79.8581 40.098 80.1352 40.6131C80.5901 41.4577 80.6006 41.4526 81.3273 40.8551C81.4738 40.7367 81.6358 40.6337 81.7509 40.4946C82.1953 39.9693 82.692 39.6808 83.4397 39.8457C84.3286 40.0414 85.0293 40.4379 85.4214 41.2723C85.8397 42.153 85.8972 43.0955 85.8972 44.0432C85.8972 47.1489 85.8711 50.2545 85.8659 53.3602C85.8659 54.1431 85.8816 54.9208 85.9129 55.7036C85.9338 56.3629 86.0489 57.0015 86.3469 57.6092C86.5822 58.0831 86.4306 58.2942 85.892 58.3097C85.5155 58.32 85.1391 58.2994 84.7626 58.3148C84.0829 58.3457 83.675 58.0007 83.4136 57.4187C83.0842 56.677 83.1208 55.889 83.1051 55.1113C83.079 53.3653 83.0946 51.6142 83.0946 49.8631V49.8683Z" fill="#060606"/>
<path d="M150.823 52.9379C150.823 50.9807 150.833 49.0288 150.823 47.0716C150.823 46.4587 150.823 45.8201 150.352 45.3308C150.096 45.063 149.819 44.79 149.38 44.9445C148.888 45.1196 148.454 45.3514 148.412 45.9437C148.402 46.1291 148.407 46.3145 148.407 46.4999C148.407 50.203 148.407 53.9061 148.407 57.6093C148.407 58.4745 148.444 59.3346 148.857 60.1329C149.071 60.5398 148.878 60.7252 148.459 60.6892C147.544 60.6068 146.634 60.5089 145.725 60.3904C145.301 60.3338 145.155 60.066 145.364 59.6797C145.751 58.9638 145.814 58.1912 145.814 57.4084C145.814 53.7877 145.808 50.167 145.819 46.5411C145.819 45.748 145.725 44.9857 145.406 44.2544C145.212 43.8063 145.296 43.4973 145.814 43.3634C145.976 43.3222 146.133 43.2655 146.289 43.214C147.081 42.9668 147.691 43.1814 148.119 43.8578C148.349 44.2183 148.6 44.3522 148.961 44.0175C149.066 43.9196 149.197 43.8423 149.312 43.7599C150.582 42.838 152.01 43.147 152.804 44.5222C153.217 45.2381 153.348 46.0209 153.353 46.8347C153.359 48.1326 153.364 49.4253 153.374 50.7232C153.374 51.331 153.5 51.9078 153.887 52.4022C154.127 52.7061 154.148 52.9842 153.861 53.2778C153.51 53.6383 153.374 54.0967 153.374 54.5757C153.374 56.8161 153.254 59.0617 153.468 61.2969C153.526 61.9046 153.688 62.5072 153.798 63.115C153.819 63.2489 153.897 63.4086 153.709 63.491C153.573 63.5528 153.468 63.4652 153.374 63.388C151.973 62.2549 150.885 60.9364 150.859 59.0462C150.828 57.0118 150.854 54.9723 150.854 52.9379H150.833H150.823Z" fill="#040404"/>
<path d="M69.4379 49.0906C69.4379 51.0992 69.4379 52.7473 69.4379 54.3903C69.4379 55.3843 69.7098 56.2547 70.5307 56.8934C70.8915 57.1766 70.9019 57.4547 70.5307 57.7432C70.2326 57.9698 69.9555 58.2222 69.6679 58.4591C68.9778 59.0256 68.7634 59.0205 68.0418 58.4745C67.6706 58.1964 67.4091 57.8204 67.1163 57.4754C66.8863 57.2075 66.6719 57.1715 66.3739 57.4032C65.668 57.9492 64.9203 58.4333 64.1517 58.8917C63.5608 59.2419 63.0641 59.175 62.5569 58.7423C61.5791 57.9028 61.2131 56.7801 61.0615 55.58C60.8001 53.4684 60.936 51.4031 61.8406 49.4253C62.0863 48.8846 62.4419 48.5343 63.0641 48.4056C63.8013 48.2511 64.4706 47.9163 65.0771 47.4631C66.5882 46.3197 67.0745 44.8209 66.3895 42.7299C66.1595 42.0294 65.553 41.6277 64.9464 41.6638C64.366 41.6998 63.9687 42.0809 63.7543 42.838C63.6654 43.1522 63.5974 43.4767 63.5347 43.796C63.451 44.2286 63.1739 44.5222 62.8288 44.7746C62.4837 45.0269 62.2432 44.9548 62.1334 44.5531C61.9974 44.0793 61.8615 43.6054 61.7621 43.1213C61.5896 42.2766 61.987 41.4423 62.8811 40.9685C64.3922 40.1702 66.0026 40.0517 67.5869 40.6955C68.868 41.2208 69.2758 42.3951 69.3804 43.6569C69.5425 45.5832 69.4013 47.5197 69.4483 49.0906H69.4379ZM66.6719 51.6194C66.6719 51.331 66.6719 51.0426 66.6719 50.7541C66.6719 49.7859 66.6719 48.8228 66.6614 47.8545C66.6614 47.5815 66.5569 47.2055 66.2013 47.5403C65.2549 48.4313 64.2928 49.3275 64.0314 50.6923C63.7804 51.9954 63.7491 53.3036 63.9059 54.6118C63.9739 55.1989 64.0889 55.7912 64.3817 56.3217C64.8575 57.1869 65.6732 57.2436 66.2745 56.4607C66.6196 56.0075 66.6719 55.4822 66.6771 54.9414C66.6771 53.834 66.6771 52.7216 66.6771 51.6142L66.6719 51.6194Z" fill="#060606"/>
<path d="M143.094 51.1506C143.094 52.8605 143.094 54.5653 143.094 56.2752C143.094 57.2847 143.387 58.1808 144.187 58.8607C144.6 59.2161 144.548 59.5045 144.114 59.7878C143.873 59.9474 143.643 60.1277 143.403 60.2925C142.634 60.8384 142.43 60.8333 141.724 60.2204C141.411 59.9474 141.144 59.6281 140.924 59.2779C140.647 58.8349 140.349 58.7062 139.863 59.0513C139.204 59.5199 138.477 59.8856 137.745 60.2307C137.243 60.4676 136.836 60.3903 136.422 60.0556C135.56 59.3551 135.115 58.4178 134.896 57.3722C134.394 55.0031 134.498 52.6854 135.544 50.4502C135.774 49.9557 136.104 49.6776 136.673 49.621C137.081 49.5797 137.494 49.4613 137.876 49.3068C140.365 48.2973 140.762 46.3968 140.02 44.1564C139.889 43.765 139.602 43.4508 139.22 43.2397C138.545 42.8637 137.897 43.0388 137.541 43.7289C137.332 44.1358 137.233 44.5788 137.165 45.0268C137.092 45.5316 136.799 45.8869 136.402 46.1805C136.088 46.4123 135.853 46.3762 135.743 45.9951C135.586 45.444 135.398 44.8878 135.335 44.3212C135.225 43.389 135.753 42.7246 136.532 42.328C138.153 41.4988 139.816 41.5709 141.374 42.4568C142.608 43.1573 142.943 44.4139 143.063 45.7273C143.079 45.8715 143.084 46.0157 143.084 46.1599C143.084 47.8286 143.084 49.4922 143.084 51.1609L143.094 51.1506ZM140.334 53.2159C140.334 52.8863 140.334 52.5567 140.334 52.2322C140.334 51.3103 140.344 50.3832 140.328 49.4613C140.328 49.2192 140.297 48.7557 139.915 49.0647C139.016 49.7858 138.096 50.5223 137.792 51.7223C137.411 53.2417 137.416 54.7662 137.646 56.301C137.74 56.9345 137.881 57.5577 138.315 58.0624C138.77 58.5929 139.319 58.6186 139.826 58.1396C140.213 57.774 140.334 57.3053 140.334 56.7954C140.334 55.6057 140.334 54.4159 140.334 53.2211V53.2159Z" fill="#040404"/>
<path d="M42.4466 50.5068C42.4466 52.2116 42.4466 53.9215 42.4466 55.6263C42.4466 56.6203 42.7185 57.4907 43.5655 58.1087C43.9368 58.3817 43.8792 58.6444 43.5655 58.9122C43.189 59.2367 42.8074 59.5611 42.4413 59.8908C42.1015 60.1946 41.7616 60.2255 41.3695 59.9732C40.9407 59.7002 40.5852 59.3654 40.2819 58.9689C39.9839 58.5723 39.691 58.4744 39.2623 58.8452C38.5878 59.4272 37.8349 59.9114 37.0767 60.38C36.5904 60.6839 36.1564 60.6427 35.6963 60.3182C34.9591 59.7981 34.5512 59.0616 34.3368 58.2375C33.6989 55.7756 33.8715 53.355 34.8493 50.9961C35.095 50.409 35.4924 50.0639 36.1355 49.863C37.7721 49.348 39.1054 48.4415 39.5917 46.7007C39.8427 45.8097 39.7433 44.9032 39.4139 44.038C39.1839 43.4251 38.5878 43.0079 38.0388 43.0439C37.359 43.0851 36.9983 43.5075 36.8257 44.1101C36.7264 44.4448 36.6532 44.7848 36.58 45.1298C36.5277 45.3771 36.4492 45.614 36.2715 45.7942C36.0414 46.0209 35.8323 46.3711 35.4715 46.3041C35.0846 46.2372 35.1787 45.8097 35.0636 45.5419C35.0166 45.4286 35.0061 45.305 34.9695 45.1865C34.5042 43.5229 35.0636 42.5238 36.7525 41.9984C37.8035 41.6739 38.8754 41.5967 39.9629 41.7976C41.4427 42.0705 42.3838 43.2963 42.4257 45.1401C42.4675 46.9273 42.4361 48.7196 42.4361 50.5068H42.457H42.4466ZM39.6858 52.9738C39.6858 51.7377 39.6858 50.5068 39.6858 49.2707C39.6858 49.1162 39.7329 48.9308 39.5551 48.8226C39.4296 48.7454 39.3041 48.7866 39.2152 48.8793C38.3159 49.8476 37.3172 50.7437 37.0558 52.124C36.7943 53.4889 36.7577 54.8589 36.9512 56.2289C37.0244 56.7542 37.1342 57.2795 37.4061 57.7534C37.8558 58.5517 38.5407 58.6289 39.1734 57.9645C39.5865 57.5319 39.691 56.9963 39.691 56.4246C39.691 55.2709 39.691 54.1224 39.691 52.9687L39.6858 52.9738Z" fill="#040404"/>
<path d="M116.773 49.0598C116.757 51.0993 116.705 53.1285 116.004 55.0805C115.408 56.7441 114.289 57.9132 112.621 58.5725C112.124 58.7682 111.654 58.7476 111.173 58.5261C109.62 57.8154 109.029 56.4608 108.747 54.9415C108.522 53.7311 108.407 52.5002 108.255 51.2744C108.198 50.816 108.067 50.3937 107.805 50.0074C107.664 49.7963 107.507 49.5439 107.69 49.3276C108.475 48.3851 108.422 47.2159 108.616 46.1138C109.05 43.621 110.31 41.7823 112.778 40.8501C113.824 40.4535 114.435 40.5874 115.209 41.463C116.051 42.421 116.297 43.6158 116.506 44.8159C116.752 46.2168 116.794 47.6383 116.783 49.0546L116.773 49.0598ZM114.064 49.4666C113.996 48.1739 114.08 46.773 113.865 45.3876C113.724 44.4553 113.588 43.5077 112.93 42.7609C112.548 42.3231 112.166 42.3798 111.889 42.8793C111.643 43.3274 111.434 43.8064 111.35 44.3163C110.728 48.0194 110.896 51.7173 111.544 55.3947C111.628 55.8737 111.795 56.3475 112.156 56.7183C112.537 57.1046 112.867 57.0892 113.186 56.6514C113.437 56.3115 113.52 55.9097 113.604 55.5029C114.017 53.5406 113.975 51.5474 114.054 49.4563L114.064 49.4666Z" fill="#040404"/>
<path d="M55.7277 54.0658C55.6597 53.0255 55.7852 52.0984 55.6336 51.1765C55.5499 50.6563 55.3669 50.1825 55.0114 49.791C54.7133 49.4614 54.6924 49.1421 54.9748 48.8022C55.4976 48.1687 55.6806 47.4167 55.6911 46.6184C55.7068 45.3411 55.6911 44.069 55.712 42.7917C55.7172 42.3745 55.5499 42.2046 55.1316 42.1685C54.6035 42.1222 54.5199 41.9367 54.8284 41.5041C55.7904 40.165 56.7682 38.8311 57.7355 37.4971C57.861 37.3272 57.9917 37.1418 58.2375 37.2345C58.4466 37.3117 58.4414 37.5177 58.4414 37.7083C58.4414 38.45 58.4519 39.1916 58.4362 39.9281C58.4257 40.4483 58.6924 40.6286 59.1734 40.608C59.5917 40.5874 60.0048 40.5513 60.4231 40.5616C60.8048 40.5771 60.9669 40.8037 60.7577 41.1384C60.4492 41.6432 60.0728 42.0398 59.3721 42.0295C58.5303 42.014 58.4414 42.1376 58.4362 42.9617C58.4205 46.7678 58.41 50.5687 58.3943 54.3749C58.3943 55.6058 58.5617 56.7595 59.7643 57.4805C60.0728 57.6659 60.0205 57.9286 59.7433 58.1295C59.2414 58.4951 58.7447 58.8711 58.227 59.211C57.8558 59.4531 57.4741 59.3965 57.1238 59.1389C56.1565 58.4333 55.8009 57.4187 55.7277 56.3011C55.6754 55.5234 55.7172 54.7405 55.7172 54.0761L55.7277 54.0658Z" fill="#040404"/>
<path d="M120.898 51.8047C120.945 53.3034 120.783 55.1988 120.982 57.089C121.029 57.5267 121.18 57.9182 121.363 58.3147C121.546 58.7113 121.4 58.9637 120.93 58.9431C120.035 58.907 119.136 58.8761 118.242 58.8143C117.803 58.7834 117.656 58.5259 117.86 58.1293C118.19 57.4855 118.258 56.8005 118.258 56.0949C118.258 52.2888 118.268 48.4827 118.273 44.6766C118.273 43.9143 118.284 43.1521 117.855 42.4671C117.672 42.1735 117.792 41.9212 118.096 41.8285C118.812 41.6121 119.539 41.4216 120.265 41.2516C120.684 41.1538 120.893 41.3752 120.903 41.7821C120.914 42.1735 120.903 42.565 120.909 42.9564C120.909 43.1109 120.956 43.25 121.113 43.3066C121.29 43.3736 121.379 43.2242 121.458 43.116C121.808 42.6319 122.143 42.1323 122.498 41.6533C122.984 40.9941 123.58 40.855 124.365 41.2104C125.044 41.5143 125.379 42.225 125.196 42.9512C124.997 43.7238 124.448 44.2697 123.957 44.8517C123.763 45.0783 123.591 44.9805 123.497 44.7333C123.455 44.6199 123.429 44.4963 123.408 44.3727C123.345 43.9452 123.115 43.6311 122.692 43.5281C122.289 43.4302 122.022 43.7238 121.808 44.0019C121.248 44.7127 121.097 45.5573 121.008 46.4277C120.841 48.0913 120.935 49.76 120.893 51.815L120.898 51.8047Z" fill="#040404"/>
<path d="M75.1213 48.4417C75.1213 50.9499 75.1213 53.4581 75.1213 55.9663C75.1213 56.5689 75.2468 57.1509 75.5396 57.6866C75.7696 58.1089 75.6703 58.3716 75.1631 58.387C74.2062 58.4179 73.2442 58.4334 72.2873 58.4488C71.8376 58.454 71.7174 58.1913 71.9004 57.8411C72.3657 56.9655 72.3867 56.0281 72.3867 55.0805C72.3814 53.9062 72.3814 52.7371 72.3867 51.5628C72.3867 50.6563 72.2298 49.8065 71.5971 49.0958C71.3514 48.8228 71.3775 48.555 71.618 48.2717C72.1252 47.6846 72.3448 46.9738 72.3657 46.2219C72.3971 45.1145 72.3814 44.0021 72.3657 42.8896C72.3605 42.4363 72.2821 41.9831 72.0363 41.5865C71.7592 41.1333 71.8952 40.85 72.371 40.6904C73.0193 40.4689 73.6729 40.2474 74.3265 40.0517C74.8755 39.8869 75.069 40.026 75.0742 40.5977C75.0899 41.8338 75.0742 43.0647 75.0742 44.3008C75.0742 45.6811 75.0742 47.0562 75.0742 48.4365H75.116L75.1213 48.4417Z" fill="#060606"/>
<path d="M154.18 41.432C154.242 41.2209 154.315 41.0097 154.363 40.7985C154.415 40.5513 154.551 40.4483 154.802 40.4792C155.074 40.5153 154.969 40.7213 154.974 40.8603C154.99 41.2106 154.99 41.5608 154.974 41.911C154.969 42.0449 155.1 42.2818 154.812 42.287C154.54 42.287 154.64 42.0655 154.624 41.9213C154.614 41.8029 154.608 41.6792 154.603 41.5453C154.546 41.5711 154.498 41.5814 154.483 41.6071C154.336 41.8183 154.462 42.2509 154.148 42.2664C153.751 42.2818 153.918 41.8132 153.766 41.5968C153.714 41.5247 153.698 41.4217 153.599 41.1694C153.599 41.5762 153.599 41.8029 153.599 42.0295C153.599 42.1428 153.636 42.2921 153.442 42.2973C153.28 42.2973 153.238 42.2046 153.244 42.0604C153.249 41.6277 153.249 41.1951 153.244 40.7625C153.244 40.5874 153.301 40.4895 153.489 40.4895C153.641 40.4895 153.787 40.4895 153.84 40.6749C153.913 40.9273 153.986 41.1797 154.059 41.432L154.18 41.4423V41.432Z" fill="#060606"/>
<path d="M152.402 40.4894C152.569 40.4894 152.741 40.4636 152.893 40.4997C153.008 40.5254 153.113 40.7366 152.961 40.752C152.355 40.7984 152.626 41.231 152.579 41.5143C152.553 41.6946 152.569 41.88 152.579 42.0654C152.579 42.2096 152.543 42.3023 152.375 42.3023C152.192 42.3023 152.198 42.1735 152.198 42.0499C152.198 41.8079 152.198 41.5607 152.198 41.3186C152.198 41.0714 152.302 40.752 151.847 40.7984C151.748 40.8087 151.717 40.7211 151.732 40.6284C151.748 40.5306 151.821 40.4997 151.905 40.4997C152.072 40.4997 152.234 40.4997 152.402 40.4997V40.4894Z" fill="#060606"/>
</svg>
