<svg width="180" height="100" viewBox="0 0 180 100" fill="none" xmlns="http://www.w3.org/2000/svg">
<mask id="mask0_1667_123108" style="mask-type:alpha" maskUnits="userSpaceOnUse" x="0" y="0" width="180" height="100">
<path d="M180 0H0V100H180V0Z" fill="white"/>
</mask>
<g mask="url(#mask0_1667_123108)">
</g>
<path fill-rule="evenodd" clip-rule="evenodd" d="M54.3545 81.2581H56.2964L57.4148 78.7735H61.5328L62.5862 81.2581H64.5541L59.5462 70.2715L54.3545 81.2581ZM59.5139 74.0483L60.7932 77.0384H58.1737L59.5139 74.0483Z" fill="black"/>
<path fill-rule="evenodd" clip-rule="evenodd" d="M73.3105 81.2581H75.2524L76.3709 78.7735H80.4888L81.5423 81.2581H83.5102L78.5022 70.2715L73.3105 81.2581ZM78.4699 74.0483L79.7498 77.0384H77.1303L78.4699 74.0483Z" fill="black"/>
<path fill-rule="evenodd" clip-rule="evenodd" d="M50.3426 72.279C51.2414 72.279 52.1252 72.6445 52.9704 73.3659L53.1984 73.5606V71.3491L53.1292 71.3077C52.2704 70.8012 51.3679 70.5444 50.4457 70.5444C48.7578 70.5444 47.364 71.1926 46.3022 72.4705C45.4382 73.5133 45 74.7175 45 76.0473C45 77.5326 45.5241 78.8194 46.5578 79.8724C47.593 80.9147 48.8614 81.443 50.3285 81.443C51.3049 81.443 52.2465 81.1842 53.1287 80.6728L53.1984 80.632V78.3791L52.9699 78.5759C52.7315 78.7812 52.4984 78.9616 52.2772 79.1101C52.0607 79.2549 51.8509 79.3711 51.6495 79.457C51.2977 79.6246 50.8599 79.7095 50.3478 79.7095C49.3605 79.7095 48.5142 79.3509 47.8334 78.6438C47.1527 77.9389 46.8076 77.0583 46.8076 76.0266C46.8076 74.9827 47.1527 74.0884 47.835 73.3675C48.5106 72.645 49.3542 72.279 50.3426 72.279Z" fill="black"/>
<path fill-rule="evenodd" clip-rule="evenodd" d="M71.6153 76.1705C71.2249 75.6697 70.6051 75.2411 69.7718 74.8984L68.7699 74.4799C68.0933 74.1961 67.7643 73.8439 67.7643 73.4036C67.7643 73.0822 67.8846 72.8223 68.1318 72.6096C68.3842 72.3899 68.7059 72.2791 69.0889 72.2791C69.4007 72.2791 69.6578 72.3427 69.8571 72.4716C70.0435 72.582 70.2475 72.8323 70.4619 73.2148L70.5317 73.3394L72.0015 72.4525L71.9323 72.3316C71.2588 71.1445 70.3068 70.5435 69.1019 70.5435C68.213 70.5435 67.4578 70.8182 66.8577 71.3609C66.2524 71.9025 65.9458 72.5867 65.9458 73.3946C65.9458 74.5897 66.6677 75.5069 68.0928 76.1216L69.0587 76.5301C69.2976 76.6346 69.5095 76.7486 69.6885 76.8664C69.8618 76.9836 69.9982 77.1024 70.1038 77.2313C70.2059 77.3544 70.2824 77.4923 70.3318 77.6414C70.3807 77.792 70.4057 77.9602 70.4057 78.1421C70.4057 78.6026 70.2662 78.9712 69.9789 79.2688C69.6896 79.5653 69.3372 79.7096 68.8995 79.7096C68.3436 79.7096 67.934 79.5123 67.6446 79.1022C67.4875 78.8948 67.3745 78.4991 67.3084 77.9273L67.2907 77.7719L65.4795 78.1761L65.4988 78.3066C65.6408 79.2911 66.0072 80.0671 66.5876 80.6156C67.1809 81.1652 67.9392 81.4442 68.8417 81.4442C69.7942 81.4442 70.6035 81.1179 71.2468 80.4756C71.887 79.8364 72.2117 79.0163 72.2117 78.0387C72.2117 77.3072 72.0114 76.6786 71.6153 76.1705Z" fill="black"/>
<path fill-rule="evenodd" clip-rule="evenodd" d="M108.273 77.382H110.756C110.66 77.9947 110.349 78.5325 109.831 78.9824C109.265 79.4693 108.619 79.716 107.912 79.716C107.073 79.716 106.284 79.3823 105.566 78.7256C104.797 78.0185 104.408 77.1056 104.408 76.0145C104.408 74.9547 104.757 74.0603 105.449 73.3554C106.138 72.6408 107.004 72.2791 108.022 72.2791C109.154 72.2791 110.129 72.8239 110.92 73.8991L111.014 74.0269L112.304 72.7697L112.217 72.6674C111.579 71.9253 110.919 71.38 110.253 71.0453C109.555 70.7127 108.796 70.5435 107.996 70.5435C106.505 70.5435 105.22 71.0813 104.177 72.1422C103.137 73.1983 102.609 74.5033 102.609 76.0203C102.609 77.5066 103.128 78.7983 104.15 79.8581C105.175 80.9153 106.423 81.4511 107.859 81.4511C109.332 81.4511 110.564 80.8951 111.521 79.7992C111.942 79.3118 112.246 78.7776 112.427 78.2095C112.609 77.6021 112.701 76.9019 112.701 76.1275V75.6464H108.273V77.382Z" fill="black"/>
<path fill-rule="evenodd" clip-rule="evenodd" d="M90.2832 77.7352L86.7836 70.1949L84.5508 81.2584H86.4042L87.429 75.3991L90.252 81.5565L93.1588 75.4086L94.0774 81.2584H95.9162L93.9119 70.1912L90.2832 77.7352Z" fill="black"/>
<path fill-rule="evenodd" clip-rule="evenodd" d="M98.6348 81.2583H100.429V70.7422H98.6348V81.2583Z" fill="black"/>
<path fill-rule="evenodd" clip-rule="evenodd" d="M123.482 75.9971C123.482 74.9362 123.145 74.0716 122.452 73.355C121.769 72.6452 120.914 72.2851 119.909 72.2851C118.908 72.2851 118.051 72.6452 117.362 73.3555C116.671 74.0605 116.322 74.9405 116.322 75.9706C116.322 77.0697 116.673 77.9487 117.397 78.6568C118.11 79.3549 118.942 79.7092 119.87 79.7092C120.88 79.7092 121.743 79.349 122.436 78.6382C123.13 77.9221 123.482 77.0336 123.482 75.9971ZM123.707 72.1562C124.757 73.2208 125.289 74.5188 125.289 76.0141C125.289 77.5174 124.754 78.8117 123.699 79.8599C122.643 80.9112 121.348 81.4443 119.849 81.4443C118.524 81.4443 117.319 80.9706 116.269 80.0376C115.105 79.0016 114.516 77.6277 114.516 75.9536C114.516 74.4811 115.053 73.1985 116.112 72.1413C117.164 71.0868 118.448 70.551 119.927 70.551C121.392 70.551 122.663 71.091 123.707 72.1562Z" fill="black"/>
<path fill-rule="evenodd" clip-rule="evenodd" d="M132.904 76.171C132.516 75.6702 131.896 75.2416 131.061 74.8984L130.06 74.4799C129.383 74.1967 129.054 73.8444 129.054 73.4036C129.054 73.0811 129.173 72.8217 129.419 72.6096C129.672 72.3899 129.994 72.2791 130.378 72.2791C130.69 72.2791 130.947 72.3427 131.146 72.4716C131.331 72.5809 131.535 72.8313 131.752 73.2159L131.822 73.3394L133.291 72.4525L133.222 72.3316C132.548 71.1445 131.596 70.5435 130.391 70.5435C129.502 70.5435 128.746 70.8182 128.147 71.3609C127.541 71.903 127.234 72.5873 127.234 73.3946C127.234 74.5897 127.956 75.5069 129.38 76.1216L130.348 76.5301C130.589 76.6367 130.802 76.7502 130.978 76.8669C131.151 76.9836 131.287 77.1024 131.393 77.2319C131.496 77.3539 131.572 77.4918 131.62 77.6409C131.669 77.792 131.693 77.9607 131.693 78.1421C131.693 78.6031 131.553 78.9717 131.267 79.2693C130.983 79.5616 130.62 79.7096 130.188 79.7096C129.633 79.7096 129.223 79.5123 128.932 79.1028C128.776 78.8954 128.664 78.4991 128.598 77.9273L128.58 77.7719L126.768 78.1761L126.786 78.3066C126.93 79.2911 127.297 80.0671 127.877 80.6156C128.47 81.1652 129.229 81.4442 130.131 81.4442C131.084 81.4442 131.893 81.1179 132.536 80.4756C133.175 79.8374 133.5 79.0179 133.5 78.0387C133.5 77.3056 133.299 76.6765 132.904 76.171Z" fill="black"/>
<path fill-rule="evenodd" clip-rule="evenodd" d="M91.7574 63.5757L91.6772 63.381L91.6726 63.3715L91.6559 63.3306V63.3301L91.5133 62.9869L91.4352 62.8002L91.4269 62.7779L91.2869 62.439L91.2093 62.2517L91.2036 62.2406V62.239L91.1615 62.1382L90.9876 61.7207L90.9569 61.6449L90.7597 61.1664L90.653 60.9134V60.9123L90.4312 60.3745L89.1431 57.2687V57.2671L88.9448 57.7869L88.8922 57.9227L86.751 63.4956L86.5371 64.0542H91.9567L91.8979 63.9152L91.7574 63.5757Z" fill="#00CDBD"/>
<path fill-rule="evenodd" clip-rule="evenodd" d="M86.5762 63.2224L86.6319 63.075L86.634 63.0712L86.6954 62.9105L86.7162 62.8559L86.4107 62.8193L80.6528 62.1281L80.6486 62.1276L46.5309 58.0315L46.4591 58.0224L45.2859 57.8813C45.2745 57.9763 45.3905 58.0856 45.6097 58.2049C45.6201 58.2097 45.6284 58.2145 45.6357 58.2176C45.8028 58.3052 46.026 58.3975 46.3034 58.493C46.6095 58.6006 46.9806 58.712 47.4115 58.8287C47.6265 58.8881 47.8555 58.946 48.0991 59.007C51.7101 59.9002 58.4418 61.0163 66.1874 61.9462C74.0298 62.8888 80.9021 63.3964 84.5839 63.3699C84.7827 63.3678 84.9654 63.3651 85.146 63.3603C85.5915 63.3476 85.9714 63.3248 86.2951 63.2956C86.381 63.2855 86.4799 63.2787 86.558 63.2696L86.5762 63.2224Z" fill="#00CDBD"/>
<path fill-rule="evenodd" clip-rule="evenodd" d="M47.6975 57.9668L79.1307 61.741L85.4008 62.4937L86.4443 62.6199L86.5343 62.63L86.5375 62.6305L86.7899 62.6608L86.8971 62.3812L86.9273 62.299L86.9346 62.2799L86.5078 62.142L82.4294 60.8265L82.4278 60.8254L48.5095 49.877L48.2118 49.7815L47.263 49.4744C47.2307 49.5741 47.3379 49.7157 47.5674 49.8945L47.569 49.8966C47.6991 49.9979 47.8724 50.112 48.0816 50.2356C48.3492 50.3947 48.6781 50.5708 49.0659 50.7649C49.2865 50.8758 49.5311 50.9909 49.7888 51.1119C53.1265 52.6682 59.4471 55.0276 66.7841 57.3966C69.4609 58.2607 72.0242 59.0463 74.3772 59.7279C74.8993 59.8791 75.4041 60.0223 75.9027 60.1624C78.007 60.7549 79.8968 61.2492 81.5123 61.6359C79.8968 61.2492 78.007 60.7559 75.9027 60.1629C75.4041 60.0223 74.8993 59.8791 74.3772 59.7279C72.9892 59.5205 71.5188 59.3147 69.9985 59.1131C68.878 58.9651 67.7371 58.8187 66.5619 58.6782C54.9232 57.2783 45.4049 56.8327 45.3086 57.6804L46.5093 57.8252L47.6975 57.9668Z" fill="#00CDBD"/>
<path fill-rule="evenodd" clip-rule="evenodd" d="M132.069 58.0597L131.796 58.092L97.61 62.1966L97.6069 62.1977L91.7911 62.8968H91.7891L91.9192 63.214L91.9239 63.2225L91.9624 63.3159H91.9629L91.9723 63.3419H91.9744C91.979 63.3429 91.9874 63.3429 91.9926 63.344C92.3022 63.3763 92.6837 63.3976 93.1189 63.4114C93.2443 63.4156 93.3749 63.4172 93.5087 63.4198C97.1088 63.4787 104.141 62.969 112.205 61.9998C120.021 61.062 126.803 59.9348 130.387 59.0383C130.641 58.9742 130.884 58.9116 131.105 58.8495C131.524 58.7344 131.878 58.6251 132.17 58.519C132.356 58.4522 132.513 58.3891 132.644 58.3275C132.67 58.3153 132.696 58.3031 132.717 58.2941C132.984 58.161 133.117 58.0416 133.106 57.9355L132.069 58.0597Z" fill="#00CDBD"/>
<path fill-rule="evenodd" clip-rule="evenodd" d="M111.828 58.7333C110.587 58.8834 109.378 59.0351 108.198 59.1932C106.781 59.3804 105.409 59.5735 104.107 59.7703C103.565 59.9262 103.038 60.0769 102.518 60.2238C98.3354 61.4051 94.9347 62.2247 92.947 62.5238C92.5541 62.5822 92.221 62.6183 91.9436 62.6374C91.917 62.6379 91.8946 62.6379 91.8707 62.6384H91.8691C91.8088 62.6421 91.7437 62.6474 91.6885 62.6485H91.6875L91.7052 62.6899L91.7104 62.7031H91.7125L91.751 62.6968L92.7925 62.5732L99.1078 61.8141H99.1088L130.676 58.0257L132.109 57.8527L133.081 57.736C132.985 56.8889 123.467 57.3334 111.828 58.7333Z" fill="#00CDBD"/>
<path fill-rule="evenodd" clip-rule="evenodd" d="M129.777 49.9728L95.392 61.0729L95.3904 61.074L92.5471 61.9922L92.457 62.0213L91.8778 62.207L91.5493 62.3136H91.5488L91.6873 62.6478H91.6888C91.7435 62.6467 91.8091 62.642 91.8736 62.6383C91.8981 62.6377 91.9199 62.6377 91.9459 62.6356C92.2228 62.6181 92.5554 62.5815 92.9484 62.5232C94.9355 62.224 98.3368 61.405 102.518 60.2226C103.036 60.0767 103.565 59.9255 104.105 59.7691C106.395 59.1012 108.875 58.3411 111.461 57.5072C119.325 54.968 126.02 52.4388 129.128 50.9005C129.235 50.8464 129.335 50.7965 129.434 50.7462C129.787 50.5631 130.084 50.3982 130.32 50.2491C130.434 50.178 130.535 50.1107 130.619 50.0481L130.621 50.047C130.887 49.8492 131.015 49.6922 130.982 49.5845L130.254 49.8195L129.777 49.9728Z" fill="#00CDBD"/>
<path fill-rule="evenodd" clip-rule="evenodd" d="M125.775 40.6699L95.8332 59.0138L95.8327 59.0144L91.9417 61.3982L91.3301 61.7748H91.3291L91.3931 61.9302L91.4649 62.1026L91.467 62.1095L91.4733 62.1265H91.4748L92.1629 61.9032L96.5348 60.4933H96.5369L128.767 50.0896L130.154 49.6419L130.926 49.3936C130.673 48.5799 121.52 50.8073 110.49 54.3703C107.883 55.21 105.412 56.0481 103.149 56.8528C102.043 57.2453 100.985 57.6299 99.9907 58.0012C102.81 56.4459 106.09 54.5353 109.556 52.4108C116.96 47.8734 123.119 43.6494 125.589 41.4942C125.682 41.4141 125.752 41.3473 125.833 41.2725C126.076 41.0518 126.272 40.8566 126.419 40.6901C126.675 40.4004 126.799 40.1856 126.738 40.0806L126.162 40.4323L125.775 40.6699Z" fill="#00CDBD"/>
<path fill-rule="evenodd" clip-rule="evenodd" d="M91.2462 61.569H91.2451L91.2519 61.5865H91.2534L91.3955 61.499C91.3435 61.5234 91.292 61.5478 91.2462 61.569Z" fill="#00CDBD"/>
<path fill-rule="evenodd" clip-rule="evenodd" d="M120.559 34.005L121.26 33.3632L121.759 32.906C121.201 32.2699 113.769 38.1537 105.166 46.042C103.686 47.3988 102.27 48.7239 100.941 49.9959C100.464 50.4505 99.9996 50.8977 99.5457 51.3374C99.3635 51.5862 99.1908 51.8159 99.0107 52.0572C97.3119 54.3445 95.7541 56.3576 94.4561 57.9373L120.559 34.005Z" fill="#00CDBD"/>
<path fill-rule="evenodd" clip-rule="evenodd" d="M92.8184 58.1631L94.1263 56.2842L94.1268 56.2821L114.266 27.326L114.621 26.8173C113.939 26.323 107.957 33.7269 101.265 43.3493C100.223 44.8488 99.2414 46.2964 98.301 47.7027C98.0428 48.0899 97.7717 48.4872 97.5213 48.8659C97.3121 49.3115 97.1054 49.7481 96.8999 50.1777C95.3442 53.4352 93.9322 56.1946 92.8184 58.1631Z" fill="#00CDBD"/>
<path fill-rule="evenodd" clip-rule="evenodd" d="M90.0755 58.6985L90.0713 58.7197L90.203 59.0348L90.2092 59.0523L90.446 59.6257L90.4882 59.7292V59.7302L90.5787 59.9525L90.7083 60.2676L90.814 60.5243V60.5232L91.4828 59.0067L90.814 60.5243L90.8176 60.5339L90.8234 60.5445L90.9217 60.7895V60.7901L91.0066 60.9927L91.0378 61.0696V61.0717L91.1632 61.3746L91.1872 61.4324L91.2054 61.4786H91.2059L91.2418 61.5677H91.2429C91.2897 61.5481 91.3418 61.5221 91.3922 61.4987C91.6582 61.372 91.9986 61.173 92.3983 60.9131H92.3988C92.5747 60.7996 92.7579 60.6776 92.9578 60.5397L97.0752 58.0158L97.0768 58.0148L124.952 40.938L125.873 40.3721L126.632 39.9079C126.202 39.177 117.808 43.5113 107.89 49.5897C106.665 50.3418 105.476 51.0823 104.331 51.808C103.447 52.3665 102.586 52.9177 101.763 53.4524C103.515 51.9342 105.388 50.2628 107.324 48.489C113.53 42.7967 118.64 37.6291 120.802 34.9456C121.077 34.6056 121.318 34.2931 121.494 34.0369C121.562 33.9361 121.605 33.8598 121.657 33.7738C121.881 33.4078 121.976 33.1516 121.893 33.0545L121.487 33.428L121.164 33.7224L95.4342 57.3109L93.4658 59.116C93.776 58.7558 94.1049 58.3622 94.4568 57.9368C95.7527 56.3571 97.3105 54.3446 99.0088 52.0568C99.1883 51.8144 99.3611 51.5841 99.5438 51.337C100.925 49.4639 102.392 47.4148 103.896 45.2527C109.444 37.2774 113.729 30.2925 114.649 27.8482C114.841 27.3421 114.896 27.017 114.78 26.9321L114.464 27.3872L114.293 27.6339L93.6063 57.3777L93.3388 57.7633C93.3388 57.7633 93.3377 57.7639 93.3367 57.766L92.5404 58.9086L93.3388 57.7612L93.3393 57.7601L93.6063 57.3772C93.5527 57.4355 93.5085 57.4843 93.4554 57.5432L93.4548 57.5442C93.1821 57.844 92.9156 58.1384 92.6773 58.4089C92.544 58.6423 92.4181 58.8534 92.2947 59.0629C92.4181 58.8534 92.544 58.6423 92.6773 58.4083C92.7226 58.3283 92.7704 58.2444 92.8157 58.1628C93.93 56.1921 95.3421 53.4338 96.8977 50.1779C97.1038 49.7472 97.3105 49.3117 97.5197 48.8656C98.4446 46.8992 99.4106 44.779 100.387 42.5586C104.127 34.0746 106.911 26.7024 107.553 23.7802C107.726 22.9957 107.753 22.514 107.591 22.4392L107.366 22.9532L107.26 23.1898L92.15 57.4886L92.148 57.4923C91.5593 58.5362 91.0971 59.4125 90.7854 60.0941L90.7443 60.1853L90.7854 60.0941L106.998 23.2922L107.15 22.9469L107.409 22.3586C106.647 22.008 102.183 30.45 97.4427 41.2091C95.6054 45.3816 94.0019 49.2772 92.7657 52.5183C92.53 53.133 92.3025 53.7335 92.0954 54.2963C93.0333 50.6691 94.0961 45.9062 95.1125 40.6643C96.8379 31.7528 97.9163 24.0661 97.946 20.9248C97.9559 19.987 97.8721 19.4486 97.6852 19.4109L97.5561 20.0681L90.0755 58.6985Z" fill="#00CDBD"/>
<path fill-rule="evenodd" clip-rule="evenodd" d="M49.617 50.0242L81.3078 60.2518L81.3114 60.2534L85.7781 61.6956L86.4927 61.9259L87.0064 62.0919L87.0137 62.0792L87.0152 62.0728L87.0241 62.051L87.0256 62.0441C87.0048 62.041 86.9746 62.0325 86.9496 62.0277C86.805 62.0006 86.6322 61.955 86.4261 61.8882C86.2907 61.8442 86.1398 61.7901 85.9785 61.7301C86.1388 61.7901 86.2902 61.8442 86.4255 61.8877C86.6301 61.954 86.8039 62.0001 86.9491 62.0277C86.9736 62.0319 87.0027 62.0383 87.0256 62.0436L87.0694 61.9375L87.124 61.7901H87.1235L85.954 61.0729L81.7746 58.513L52.5972 40.6369L52.1402 40.3573L51.5115 39.9717C51.4532 40.0677 51.5505 40.2565 51.7671 40.5143C51.7691 40.5165 51.7728 40.5202 51.7749 40.5228C51.8384 40.5976 51.9154 40.6793 51.9976 40.7636C52.1933 40.9631 52.4364 41.1922 52.7367 41.4516C52.9423 41.6283 53.1718 41.8187 53.4242 42.025C56.2623 44.3123 61.9568 48.1756 68.6911 52.3014C72.1595 54.4264 75.4405 56.3371 78.2599 57.8939C78.6253 58.0955 78.9802 58.2896 79.3274 58.4785C80.7686 59.2593 82.0651 59.9346 83.1799 60.4793C82.0651 59.9346 80.7686 59.2593 79.3274 58.4785C78.9787 58.2896 78.6242 58.0955 78.2589 57.8939C77.1503 57.4791 75.9631 57.0468 74.7135 56.6055C72.5577 55.8443 70.2156 55.0518 67.7574 54.2609C56.725 50.6973 47.5742 48.47 47.3223 49.2832L48.3434 49.6142L49.617 50.0242Z" fill="#00CDBD"/>
<path fill-rule="evenodd" clip-rule="evenodd" d="M86.9988 61.4483L86.9983 61.4462H86.9988C87.0311 61.4589 87.0623 61.4711 87.0904 61.4833C87.0633 61.4727 87.0316 61.4605 86.9988 61.4483ZM78.2841 54.8862C80.8932 57.105 83.1348 58.8905 84.7587 60.0559C83.1328 58.8916 80.8932 57.105 78.2841 54.8862ZM87.6832 59.4125C87.2996 58.3426 86.8463 56.8292 86.3555 54.9737C86.8473 56.8292 87.2996 58.3426 87.6832 59.4125ZM53.5431 40.981L80.5762 57.5437L80.5799 57.5464L85.2807 60.4256C85.2807 60.4277 85.2828 60.4277 85.2828 60.4277C85.3468 60.4728 85.4046 60.51 85.4681 60.5524C86.0375 60.9386 86.509 61.2266 86.8531 61.39C86.9025 61.4117 86.9363 61.4218 86.9754 61.4382C86.9363 61.4229 86.9025 61.4138 86.8531 61.3905L87.0363 61.503H87.0394L87.1976 61.6L87.1992 61.5931L87.208 61.5714L87.2221 61.5343L87.2283 61.5173L87.2304 61.5141L87.3584 61.1789V61.1767L87.2054 60.9598L85.3963 58.3569L87.207 60.9598L87.2616 61.0086L87.2054 60.9598L87.3584 61.1767V61.1789L87.373 61.1417L87.3766 61.1343V61.1322L87.3813 61.1194L87.4011 61.0648L87.4266 60.9974L87.4771 60.8691L87.5489 60.6813V60.6771L87.6405 60.441L87.6494 60.4171L87.6509 60.415V60.4145L87.6905 60.3121V60.3105L87.8071 60.0055L87.856 59.8793V59.8766L88.0938 59.2576L88.1277 59.1642L88.2271 58.9091L88.2297 58.9027V58.9011L88.2271 58.8942L87.9486 57.4503L80.7178 20.1079L80.6303 19.6512L80.5622 19.3005C80.3795 19.3361 80.2957 19.8267 80.2972 20.693C80.3004 23.7584 81.3855 31.5311 83.1327 40.5566C84.1471 45.7959 85.2099 50.5556 86.1468 54.1833C85.9297 53.5903 85.6914 52.9596 85.4431 52.3119C84.2106 49.0884 82.6211 45.2299 80.8016 41.1009C76.0622 30.3402 71.5981 21.8981 70.8372 22.2493L71.0345 22.6996L87.4604 59.988L87.4771 60.0225L87.4604 59.9875C87.1487 59.3053 86.6865 58.4248 86.0937 57.3771L70.8305 22.7288L70.6545 22.3294C70.5244 22.3883 70.5177 22.7156 70.6061 23.237C71.0334 25.798 73.9173 33.5096 77.8557 42.4498C78.8342 44.6692 79.7992 46.7889 80.724 48.7542C81.4267 50.2479 82.1022 51.6483 82.744 52.9357C83.7459 54.9519 84.6588 56.6907 85.4265 58.0503C85.4728 58.1325 85.5196 58.2168 85.5654 58.2953C85.2828 57.975 84.9716 57.6302 84.6405 57.271L84.6395 57.2689L84.2679 56.7358L84.2669 56.7321L64.0264 27.6323L63.8765 27.4143L63.4653 26.8239C63.3571 26.9008 63.3992 27.1862 63.5512 27.6158C63.5809 27.6954 63.5991 27.7654 63.6355 27.8556C63.7084 28.0381 63.8005 28.2465 63.9056 28.4714C65.2666 31.4022 69.2841 37.8614 74.3488 45.1424C75.8519 47.3045 77.3181 49.3504 78.6989 51.2255C78.104 50.6479 77.4799 50.0522 76.845 49.4469C75.6479 48.3097 74.392 47.1347 73.0799 45.9333C64.4771 38.0434 57.0464 32.1607 56.4864 32.7962L57.151 33.4057L57.9739 34.1578L81.538 55.7635L81.5396 55.7646L83.7896 57.8285C83.2525 57.175 82.6622 56.4298 82.045 55.6399C82.6622 56.4276 83.2525 57.174 83.7896 57.8285C84.1399 58.2534 84.4698 58.646 84.7806 59.0093L82.2927 56.7273C82.2912 56.7252 82.2906 56.7252 82.2906 56.7252L57.2051 33.7266L56.9569 33.498L56.3531 32.9458C56.274 33.0349 56.3521 33.263 56.5405 33.5887C56.5405 33.5903 56.5431 33.5913 56.5441 33.5929C56.5467 33.5977 56.5514 33.6051 56.5535 33.6094C56.6753 33.8125 56.8408 34.0539 57.0531 34.3377C57.1526 34.4698 57.265 34.6124 57.3831 34.7604C59.5113 37.4222 64.6561 42.6339 70.9215 48.3781C72.8551 50.153 74.7282 51.8234 76.4796 53.3415C75.5006 52.7071 74.4774 52.052 73.4203 51.3847C72.4278 50.7587 71.403 50.1222 70.3553 49.4809C60.4372 43.4014 52.0442 39.0677 51.6143 39.7992L52.2544 40.1917L53.5431 40.981Z" fill="#00CDBD"/>
<path fill-rule="evenodd" clip-rule="evenodd" d="M64.5517 28.0354L83.5493 55.3508L83.5503 55.3535L85.4271 58.0503C84.6568 56.6907 83.7465 54.9514 82.7426 52.9336C82.1014 51.6457 81.4273 50.2458 80.7247 48.7542C80.3292 48.1527 79.9039 47.5267 79.485 46.9029C78.6814 45.7105 77.8554 44.4942 76.9805 43.2386C70.2909 33.6152 64.3086 26.2133 63.6289 26.7072L64.0239 27.2769L64.5517 28.0354Z" fill="#00CDBD"/>
<path fill-rule="evenodd" clip-rule="evenodd" d="M80.945 20.2582L88.3034 58.2415L88.3039 58.2431C88.3179 58.3619 88.3335 58.4828 88.3476 58.5948L88.7343 57.5832L89.0664 56.7165L89.0721 56.6995L89.1101 19.2939V18.4653C88.9232 18.4653 88.7426 18.9475 88.5771 19.8243C88.0004 22.8617 87.582 30.6667 87.5731 39.8233C87.5716 42.5418 87.6028 45.1373 87.6679 47.5275C87.6798 47.9779 87.6929 48.4139 87.7079 48.8473C87.7855 51.2481 87.8943 53.4038 88.0244 55.2174C87.8943 53.4038 87.7855 51.2491 87.7079 48.8473C87.6929 48.4139 87.6798 47.9779 87.6679 47.528C87.5898 47.0528 87.5055 46.5616 87.4217 46.0693C87.0886 44.1173 86.7139 42.0565 86.298 39.9182C84.0589 28.3465 81.5742 19.0971 80.7529 19.2642L80.8289 19.6509L80.945 20.2582Z" fill="#00CDBD"/>
<path fill-rule="evenodd" clip-rule="evenodd" d="M89.2981 56.8357L89.4631 57.2336L89.9549 58.4334L89.9752 58.4822L89.9986 58.539C90.0007 58.531 90.0007 58.521 90.0028 58.5119C90.02 58.3661 90.0398 58.2106 90.058 58.0531C90.085 57.8287 90.1105 57.5985 90.1355 57.3545V57.3455L90.5634 55.1431L97.1972 20.8984L97.3674 20.0099L97.4929 19.3723C96.6716 19.2058 94.1868 28.4557 91.9462 40.028C91.5798 41.9201 91.2452 43.7496 90.9407 45.4969C90.8626 45.9467 90.7861 46.3933 90.7106 46.8299C90.7689 44.6349 90.7996 42.2808 90.8028 39.8264C90.8153 30.7658 90.4187 23.026 89.8571 19.9219C89.6858 18.9856 89.5011 18.4663 89.3085 18.4663L89.3064 19.2784L89.2705 56.7668L89.2788 56.7859L89.2981 56.8357Z" fill="#00CDBD"/>
</svg>
