<svg width="120" height="54" viewBox="0 0 120 54" fill="none" xmlns="http://www.w3.org/2000/svg">
<g clip-path="url(#clip0_311_12502)">
<path d="M37.8123 19.8277C37.8874 19.6733 38.0154 19.4173 38.0683 19.2937L41.1844 11.7374L44.2475 19.3731C44.3005 19.5011 44.402 19.713 44.4771 19.8851L44.0931 19.9601C42.2216 20.4721 40.2443 20.4721 38.3729 19.9601C38.1919 19.8984 38.0021 19.8542 37.8123 19.8321M6.13073 8.31677C9.60432 8.31677 12.0539 9.03179 13.5855 10.3868C15.4216 11.9934 16.3441 14.1164 16.3441 16.769C16.3441 19.4217 15.4525 21.3902 13.687 23.0233C12.1554 24.4798 9.65287 25.2434 6.13073 25.2434H5.00523V8.31677H6.13073ZM113.362 10.4883C115.096 12.1744 115.939 14.2929 115.939 16.769C115.975 19.1304 115.043 21.4034 113.357 23.0586C111.729 24.7358 109.482 25.6671 107.147 25.6274C102.27 25.6274 98.3905 21.6197 98.3905 16.769C98.3596 14.4033 99.2909 12.1258 100.977 10.4618C102.663 8.74932 104.755 7.91071 107.156 7.91071C109.557 7.91071 111.623 8.78021 113.362 10.4883ZM72.2305 11.9713L75.3201 9.31427C72.6674 5.76123 69.1188 4.00016 64.939 4.00016C57.8683 3.96485 52.1084 9.66737 52.0731 16.7381C52.0731 16.7646 52.0731 16.7911 52.0731 16.8176C52.0731 23.7957 57.7932 29.5335 64.7625 29.5335C66.5191 29.5335 68.2493 29.1451 69.8427 28.408C71.4095 27.715 72.8043 26.6866 73.9297 25.3934C74.967 24.2238 75.7085 22.8202 76.1013 21.3063C76.4853 19.7968 76.6265 18.2388 76.5162 16.6852L76.4632 15.9437H65.3318V19.8498H72.1731C72.001 21.3814 71.2021 22.7099 69.825 23.8089C68.3817 25.005 66.5633 25.645 64.6919 25.6229C62.4718 25.6229 60.4812 24.7049 58.6407 22.8908C57.0164 21.2975 56.1116 19.1127 56.1381 16.8397C56.1028 14.4298 57.0605 12.1082 58.7951 10.4309C60.3797 8.7758 62.5865 7.86216 64.8772 7.90188C67.8918 7.90188 70.2664 9.27896 72.2305 11.9625M46.0616 23.7339L48.3302 29.1451H52.8234L42.2746 4.33119H40.2311L29.4131 29.1495H33.8797L36.2543 23.6368C36.3073 23.4823 36.3338 23.3808 36.3558 23.2793C36.4573 23.3322 36.6118 23.3808 36.7884 23.4558C38.2184 23.9855 39.7323 24.2547 41.255 24.2459C42.588 24.2459 43.9165 24.0384 45.1877 23.6324C45.4437 23.5573 45.6952 23.4558 45.9292 23.3278C45.9556 23.4293 46.0307 23.6588 46.0572 23.7383M6.00273 29.1495C10.5489 29.1495 14.0445 28.1299 16.3926 26.0113C19.0717 23.6103 20.4267 20.5472 20.4267 16.7955C20.4267 13.0439 19.0497 9.74682 16.2911 7.39872C13.9695 5.40372 10.5224 4.41064 6.05569 4.41064H0.768066V29.1495H6.00273ZM23.7458 29.1495H27.8065V4.41064H23.7458V29.1495ZM83.2294 17.6076H91.8847V13.728H83.2294V8.31677H92.6483V4.40181H79.1688V29.1495H92.6748V25.2434H83.2294V17.6076ZM98.086 7.75182C95.5569 10.2279 94.3079 13.2645 94.3079 16.7911C94.3079 23.9148 100.055 29.5291 107.152 29.5291C114.249 29.5291 119.996 23.9369 119.996 16.7911C119.996 13.2954 118.72 10.3074 116.253 7.7783C113.75 5.24924 110.714 4.00016 107.165 4.00016C103.616 4.00016 100.602 5.24924 98.1037 7.74299" fill="black"/>
<path d="M0.167721 53.1296L0.269236 53.0634C0.520818 53.0149 0.873915 52.931 1.10784 52.8604C1.40797 52.7765 1.47859 52.6927 1.5448 52.3926C1.81404 50.9846 2.11417 49.4927 2.48492 47.714C2.71885 46.54 3.00574 45.1497 3.23966 44.0418C3.30587 43.7549 3.32353 43.574 3.32353 43.4371C3.32353 43.2871 3.27497 43.2209 3.10725 43.1856C2.82036 43.137 2.40106 43.0531 2.10093 43.0178C2.13624 42.7309 2.20244 42.55 2.2863 42.3469L2.38782 42.2984C2.87333 42.3337 3.57952 42.3337 4.11358 42.3337C4.81977 42.3337 5.80844 42.2852 6.36016 42.2852C8.72591 42.2852 10.4164 43.0046 10.4164 45.1717C10.4164 46.412 9.82934 47.4006 8.88922 48.0715C8.06826 48.6409 6.92511 48.9101 5.72017 48.9101C5.38473 48.9101 5.06694 48.8925 4.81536 48.8616C4.7315 48.6939 4.68295 48.4776 4.62998 48.2569L4.71384 48.1907C4.94777 48.226 5.31852 48.2393 5.53479 48.2393C6.47492 48.2393 7.19435 47.9524 7.75048 47.4669C8.31985 46.946 8.58908 46.2089 8.58908 45.3218C8.58908 43.777 7.76813 43.0752 6.28954 43.0752C5.97175 43.0752 5.601 43.1105 5.40238 43.1591C5.21701 43.2076 5.13315 43.2782 5.06694 43.5607C4.85067 44.5317 4.58143 45.8073 4.34751 46.946C4.04737 48.4908 3.72517 50.0489 3.42504 51.576C3.32353 52.1145 3.27497 52.397 3.27497 52.547C3.27497 52.7501 3.35883 52.8472 3.59276 52.9001C3.84434 52.9663 4.32985 53.0502 4.74915 53.1164C4.71384 53.4033 4.66529 53.6019 4.58143 53.752L4.49757 53.8005C3.862 53.752 2.86891 53.7167 2.21568 53.7167C1.41239 53.7167 0.489922 53.752 0 53.7829C0.0176548 53.5798 0.0662057 53.3459 0.167721 53.1296Z" fill="black"/>
<path d="M9.7632 51.5671C9.7632 48.835 12.3452 46.0146 14.6095 46.0146C15.5672 46.0146 16.1675 46.5178 16.1675 47.2549C16.1675 48.7467 13.9386 49.806 11.5375 50.3754C11.4713 50.7108 11.436 51.0463 11.436 51.3817C11.436 52.4234 11.8068 52.9398 12.4247 52.9398C13.1132 52.9398 13.9695 52.3527 14.7551 51.4126L14.8743 51.4479C14.8257 51.7834 14.7066 52.2027 14.5874 52.5205C13.9518 53.2575 12.8925 53.9284 11.8376 53.9284C10.4782 53.9284 9.75879 53.1384 9.75879 51.5627L9.7632 51.5671ZM14.6448 47.1401C14.6448 46.84 14.5256 46.6723 14.2431 46.6723C13.4222 46.6723 12.1643 48.0141 11.6788 49.7928C13.9253 48.9718 14.6448 48.0141 14.6448 47.1446V47.1401Z" fill="black"/>
<path d="M20.4927 53.2139C20.4927 52.9623 20.6604 52.5077 20.912 51.7221L21.883 48.8708C22.1346 48.1823 22.3509 47.5644 22.3509 47.2598C22.3509 47.0744 22.267 46.9244 22.064 46.9244C21.2607 46.9244 19.2966 49.6256 18.021 52.4062C17.8356 52.8255 17.637 53.3287 17.4693 53.7833L17.3501 53.8495C17.2486 53.8672 17.1471 53.8672 17.05 53.8672C16.7146 53.8672 16.3968 53.748 16.2291 53.5317C16.5822 52.3091 16.9661 50.9673 17.3546 49.5903C17.6414 48.6192 17.9239 47.6262 17.9239 47.4761C17.9239 47.3437 17.8886 47.2731 17.8048 47.2731C17.5532 47.2731 16.847 47.7277 16.1099 48.681C16.0613 48.4648 16.026 48.1955 16.0437 47.9263L16.079 47.8071C16.8337 46.7655 17.871 46.0107 18.7449 46.0107C19.1642 46.0107 19.4158 46.227 19.4158 46.5625C19.4158 46.8979 19.2833 47.3172 19.098 47.9042L18.3918 50.1199H18.5242C20.0822 47.3216 21.2916 46.0107 22.7481 46.0107C23.4675 46.0107 23.9045 46.4124 23.9045 47.1009C23.9045 47.6394 23.6529 48.4074 23.419 49.065L22.4612 51.8148C22.3774 52.0664 22.2758 52.3532 22.2758 52.4857C22.2758 52.5695 22.3244 52.6357 22.4259 52.6357C22.6951 52.6357 23.3837 52.0664 24.187 51.1086L24.2885 51.1439C24.2399 51.4793 24.1384 51.8986 24.0193 52.2341C23.2292 53.1565 22.2229 53.9289 21.3357 53.9289C20.784 53.9289 20.4795 53.5758 20.4795 53.2095L20.4927 53.2139Z" fill="black"/>
<path d="M24.0503 53.2134C24.0503 52.8956 24.218 52.4763 24.5535 51.9731H24.7388C25.242 52.6264 25.7098 53.0633 26.266 53.0633C26.7868 53.0633 27.1399 52.6087 27.1399 52.0746C27.1399 50.9668 25.4627 50.2121 25.4627 48.5039C25.4627 47.2284 26.9722 46.0234 28.3492 46.0234C29.0863 46.0234 29.6248 46.3103 29.6248 46.7958C29.6248 47.1489 29.3732 47.6344 29.0731 47.9346H28.8877C28.4022 47.246 27.9299 46.862 27.5283 46.862C27.1266 46.862 26.8398 47.246 26.8398 47.7183C26.8398 49.1439 28.5832 50.0664 28.5832 51.3243C28.5832 52.0128 28.08 52.7014 27.493 53.1516C26.7868 53.6901 26.0188 53.9416 25.3126 53.9416C24.4564 53.9416 24.0547 53.6238 24.0547 53.2222L24.0503 53.2134Z" fill="black"/>
<path d="M29.8852 53.2441C29.8852 52.9925 30.0176 52.5555 30.1854 52.0038L31.1431 48.8348C31.3594 48.0977 31.5271 47.5945 31.5271 47.4445C31.5271 47.3606 31.5095 47.3253 31.4256 47.3253C31.1917 47.3253 30.5517 47.7269 29.7837 48.6009C29.7352 48.3846 29.6999 48.133 29.7175 47.8638L29.7661 47.7446C30.6532 46.7383 31.7434 46.0188 32.5511 46.0188C33.0057 46.0188 33.2705 46.2881 33.2705 46.7074C33.2705 47.0075 33.0675 47.6652 32.8512 48.3846L31.7787 51.8538C31.6772 52.1539 31.611 52.3746 31.611 52.4761C31.611 52.5776 31.6463 52.6262 31.7611 52.6262C32.0126 52.6262 32.7188 52.0568 33.4868 51.152L33.5883 51.1873C33.5398 51.4874 33.4383 51.9597 33.3191 52.2775C32.5467 53.1823 31.5271 53.937 30.7018 53.937C30.1986 53.937 29.8808 53.6369 29.8808 53.2485L29.8852 53.2441ZM32.1848 43.4015C32.1848 42.7792 32.6879 42.2451 33.3103 42.2451C33.7296 42.2451 34.1003 42.5144 34.1003 43.0837C34.1003 43.6884 33.6325 44.2578 33.0101 44.2578C32.5908 44.2578 32.1892 43.9885 32.1892 43.4015H32.1848Z" fill="black"/>
<path d="M33.9106 51.3856C33.9106 50.6309 34.1137 49.6422 34.5992 48.6668C35.3054 47.2235 36.731 46.0186 38.4215 46.0186C39.8471 46.0186 40.7696 46.8925 40.7696 48.4329C40.7696 49.8761 40.1472 51.5666 39.0085 52.7406C38.3553 53.4468 37.3313 53.9323 36.4265 53.9323C34.7978 53.9323 33.9106 52.9922 33.9106 51.3812V51.3856ZM38.0507 51.9727C38.5892 51.0678 39.1056 49.5098 39.1056 48.1151C39.1056 47.0911 38.8054 46.7248 38.2846 46.7248C37.4946 46.7248 36.7089 47.6119 36.1705 48.9404C35.835 49.7437 35.6011 50.7854 35.6011 51.624C35.6011 52.6656 35.8174 53.2526 36.5059 53.2526C37.0091 53.2526 37.5475 52.798 38.0507 51.9771V51.9727Z" fill="black"/>
<path d="M45.6201 53.2139C45.6201 52.9623 45.7879 52.5077 46.0394 51.7221L47.0105 48.8708C47.262 48.1823 47.4783 47.5644 47.4783 47.2598C47.4783 47.0744 47.3945 46.9244 47.1914 46.9244C46.3881 46.9244 44.424 49.6256 43.1485 52.4062C42.9631 52.8255 42.7645 53.3287 42.5968 53.7833L42.4776 53.8495C42.3761 53.8672 42.2745 53.8672 42.1774 53.8672C41.842 53.8672 41.5242 53.748 41.3565 53.5317C41.7096 52.3091 42.0936 50.9673 42.482 49.5903C42.7689 48.6192 43.0514 47.6262 43.0514 47.4761C43.0514 47.3437 43.0161 47.2731 42.9322 47.2731C42.6806 47.2731 41.9744 47.7277 41.2373 48.681C41.1888 48.4648 41.1535 48.1955 41.1711 47.9263L41.2064 47.8071C41.9612 46.7655 42.9984 46.0107 43.8723 46.0107C44.2916 46.0107 44.5432 46.227 44.5432 46.5625C44.5432 46.8979 44.4108 47.3172 44.2254 47.9042L43.5192 50.1199H43.6516C45.2097 47.3216 46.419 46.0107 47.8756 46.0107C48.595 46.0107 49.0319 46.4124 49.0319 47.1009C49.0319 47.6394 48.7804 48.4074 48.5464 49.065L47.5887 51.8148C47.5048 52.0664 47.4033 52.3532 47.4033 52.4857C47.4033 52.5695 47.4518 52.6357 47.5533 52.6357C47.8226 52.6357 48.5111 52.0664 49.3144 51.1086L49.4159 51.1439C49.3674 51.4793 49.2659 51.8986 49.1467 52.2341C48.3566 53.1565 47.3503 53.9289 46.4632 53.9289C45.9114 53.9289 45.6069 53.5758 45.6069 53.2095L45.6201 53.2139Z" fill="black"/>
<path d="M49.1777 53.2134C49.1777 52.8956 49.3455 52.4763 49.6809 51.9731H49.8663C50.3694 52.6264 50.8373 53.0633 51.3934 53.0633C51.9142 53.0633 52.2673 52.6087 52.2673 52.0746C52.2673 50.9668 50.5901 50.2121 50.5901 48.5039C50.5901 47.2284 52.0996 46.0234 53.4767 46.0234C54.2138 46.0234 54.7523 46.3103 54.7523 46.7958C54.7523 47.1489 54.5007 47.6344 54.2005 47.9346H54.0152C53.5297 47.246 53.0574 46.862 52.6557 46.862C52.2541 46.862 51.9672 47.246 51.9672 47.7183C51.9672 49.1439 53.7106 50.0664 53.7106 51.3243C53.7106 52.0128 53.2075 52.7014 52.6204 53.1516C51.9142 53.6901 51.1463 53.9416 50.4401 53.9416C49.5838 53.9416 49.1821 53.6238 49.1821 53.2222L49.1777 53.2134Z" fill="black"/>
</g>
<defs>
<clipPath id="clip0_311_12502">
<rect width="120" height="49.9323" fill="white" transform="translate(0 4)"/>
</clipPath>
</defs>
</svg>
